<svg width="101" height="140" viewBox="0 0 101 140" fill="none" xmlns="http://www.w3.org/2000/svg">
<path d="M19.156 30.8036C18.6252 29.2811 17.0703 26.884 17.0703 24.5193C17.0703 21.7334 17.1239 19.1096 17.1239 17.6195C18.8731 17.6195 21.9382 17.6195 25.7193 17.6195C27.4361 17.6195 29.2501 18.8829 30.5135 19.304" stroke="#F6F3EE" stroke-width="5"/>
<path d="M69.9018 19.1869C71.4243 18.656 73.8214 17.1012 76.1862 17.1012C78.972 17.1012 81.5958 17.1548 83.0859 17.1548C83.0859 18.904 83.0859 21.969 83.0859 25.7502C83.086 27.467 81.8226 29.281 81.4014 30.5444" stroke="#F6F3EE" stroke-width="5"/>
<path d="M30.5474 81.778C29.0249 82.3088 26.6278 83.8636 24.263 83.8636C21.4772 83.8636 18.8534 83.8101 17.3633 83.8101C17.3633 82.0609 17.3633 78.9958 17.3633 75.2147C17.3633 73.4978 18.6267 71.6838 19.0478 70.4205" stroke="#F6F3EE" stroke-width="5"/>
<path d="M14.5003 59.2397C13.016 58.5375 10.1491 57.9615 8.45093 56.2633C6.45038 54.2628 4.60561 52.3391 3.53555 51.269C4.82419 49.9804 7.0822 47.7224 9.86769 44.9369C11.1324 43.6721 13.3761 43.243 14.6092 42.6147" stroke="#F6F3EE" stroke-width="5"/>
<path d="M42.0807 14.8337C42.783 13.3493 43.6321 10.1491 45.3303 8.45093C47.3309 6.45038 49.2546 4.60561 50.3246 3.53555C51.6132 4.82419 53.8712 7.0822 56.6568 9.86769C57.9215 11.1324 58.3506 13.3761 58.9789 14.6092" stroke="#F6F3EE" stroke-width="5"/>
<path d="M41.9284 86.4668C42.6307 87.9512 43.4798 91.1514 45.178 92.8496C47.1785 94.8502 49.1022 96.6949 50.1723 97.765C51.4609 96.4763 53.7189 94.2183 56.5044 91.4328C57.7692 90.1681 58.1983 87.9245 58.8266 86.6914" stroke="#F6F3EE" stroke-width="5"/>
<path d="M86.3708 59.2397C87.8551 58.5375 90.722 57.9615 92.4202 56.2633C94.4207 54.2628 96.2655 52.3391 97.3355 51.269C96.0469 49.9804 93.7889 47.7224 91.0034 44.9369C89.7387 43.6721 87.495 43.243 86.2619 42.6147" stroke="#F6F3EE" stroke-width="5"/>
<path d="M70.0972 81.778C71.6196 82.3088 74.0168 83.8636 76.3815 83.8636C79.1673 83.8636 81.7912 83.8101 83.2812 83.8101C83.2812 82.0609 83.2812 78.9958 83.2812 75.2147C83.2813 73.4978 82.0179 71.6838 81.5968 70.4205" stroke="#F6F3EE" stroke-width="5"/>
<path d="M29.543 50.6606C30.6119 51.5676 33.1127 53.1086 35.2118 53.3677C37.8356 53.6917 40.0384 53.2497 42.9862 51.6948C45.3436 50.4513 47.2608 50.5818 47.877 50.5287M48.0719 50.5287H47.8775C47.8773 50.5287 47.8771 50.5287 47.877 50.5287M47.877 50.5287H48.0395M47.877 50.5287H47.8451C47.1649 50.4523 45.312 50.6065 42.9538 49.3626C40.006 47.8077 38.03 47.6989 35.4061 48.0228C33.3071 48.282 30.4824 49.4805 29.5754 50.6143M45.1565 50.5287C41.374 50.5481 38.9295 50.544 35.147 50.5634" stroke="#F6F3EE" stroke-linecap="round"/>
<path d="M34.8242 66.1235C34.9387 64.7263 35.8824 61.492 37.1835 59.8245C38.8098 57.7401 40.6798 56.495 43.8637 55.5101C46.41 54.7224 47.6734 53.2745 48.1466 52.8763M48.2845 52.7385L48.147 52.876C48.1469 52.8761 48.1467 52.8762 48.1466 52.8763M48.1466 52.8763L48.2615 52.7614M48.1466 52.8763L48.1241 52.8988C47.6971 53.4339 46.2779 54.6351 45.49 57.1822C44.505 60.366 43.1847 61.8402 41.1003 63.4665C39.4328 64.7675 36.3972 66.2838 34.9542 66.1235M39.2301 61.8686L46.3242 54.7421" stroke="#F6F3EE" stroke-linecap="round"/>
<path d="M71.3301 50.5819C70.2611 51.4889 67.3069 53.1086 65.2078 53.3677C62.5839 53.6917 60.3812 53.2497 57.4334 51.6948C55.0759 50.4513 53.1587 50.5818 52.5426 50.5287M52.3477 50.5287H52.542C52.5422 50.5287 52.5424 50.5287 52.5426 50.5287M52.5426 50.5287H52.38M52.5426 50.5287H52.5744C53.2547 50.4523 55.1076 50.6065 57.4658 49.3626C60.4136 47.8077 62.3896 47.6989 65.0134 48.0228C67.1125 48.282 70.4231 49.3498 71.3301 50.4835M65.2726 50.4835C65.2726 50.4835 58.9484 50.5093 55.1659 50.5287" stroke="#F6F3EE" stroke-linecap="round"/>
<path d="M65.6076 65.9975C64.2104 65.883 60.9761 64.9392 59.3086 63.6382C57.2242 62.0119 55.9791 60.1419 54.9942 56.958C54.2065 54.4117 52.7586 53.1483 52.3605 52.6751M52.2227 52.5372L52.3601 52.6747C52.3602 52.6748 52.3603 52.675 52.3605 52.6751M52.3605 52.6751L52.2455 52.5602M52.3605 52.6751L52.383 52.6976C52.918 53.1246 54.1192 54.5438 56.6663 55.3317C59.8501 56.3167 61.3243 57.637 62.9506 59.7214C64.2516 61.3889 65.8213 64.41 65.661 65.853M61.405 61.6377L54.2262 54.5118" stroke="#F6F3EE" stroke-linecap="round"/>
<path d="M50.3738 71.7162C49.4668 70.6472 47.8471 67.693 47.588 65.5939C47.264 62.97 47.706 60.7673 49.2609 57.8195C50.5044 55.462 50.3739 53.5448 50.427 52.9287M50.427 52.7338V52.9281C50.427 52.9283 50.427 52.9285 50.427 52.9287M50.427 52.9287V52.7662M50.427 52.9287V52.9605C50.5034 53.6408 50.3492 55.4937 51.5931 57.8519C53.148 60.7997 53.2568 62.7757 52.9329 65.3995C52.6737 67.4986 51.6022 70.7444 50.4685 71.6514M50.3834 66.8572L50.3835 55.6495" stroke="#F6F3EE" stroke-linecap="round"/>
<path d="M34.8242 35.2091C34.9387 36.6063 35.882 39.8436 37.1831 41.5112C38.8094 43.5956 40.6794 44.8406 43.8633 45.8256C46.4096 46.6132 47.673 48.0612 48.1462 48.4593M48.2841 48.5971L48.1466 48.4597C48.1465 48.4596 48.1463 48.4594 48.1462 48.4593M48.1462 48.4593L48.2611 48.5742M48.1462 48.4593L48.1237 48.4368C47.6967 47.9018 46.2775 46.7006 45.4896 44.1535C44.5046 40.9696 43.1843 39.4955 41.0999 37.8692C39.4324 36.5681 36.3467 35.0147 34.889 35.2091M39.0353 39.323L46.1619 46.4819" stroke="#F6F3EE" stroke-linecap="round"/>
<path d="M65.2411 35.5977C63.8439 35.7122 60.6097 36.6559 58.9421 37.9569C56.8577 39.5832 55.9791 41.1937 54.9942 44.3776C54.2065 46.9239 52.7586 48.1873 52.3605 48.6605M52.2227 48.7983L52.3601 48.6609C52.3602 48.6608 52.3603 48.6606 52.3605 48.6605M52.3605 48.6605L52.2455 48.7754M52.3605 48.6605L52.383 48.638C52.918 48.211 54.1192 46.7918 56.6663 46.0038C59.8501 45.0189 61.3243 43.6986 62.9506 41.6142C64.2516 39.9467 65.4015 37.1018 65.2411 35.6588M54.0642 46.9677L61.2046 39.7116" stroke="#F6F3EE" stroke-linecap="round"/>
<path d="M50.3699 28.2445C49.4629 29.3135 47.8432 32.2677 47.5841 34.3668C47.2601 36.9907 47.7021 39.1934 49.257 42.1412C50.5005 44.4987 50.37 46.4159 50.4231 47.032M50.4231 47.5185V47.0326L50.4231 47.032M50.4231 47.032V47.1945M50.4231 47.032V47.0002C50.4995 46.3199 50.3453 44.467 51.5892 42.1088C53.1441 39.161 53.2529 37.185 52.929 34.5612C52.6698 32.4621 51.6008 29.1515 50.4671 28.2445M50.4231 44.4735L50.3051 34.3348" stroke="#F6F3EE" stroke-linecap="round"/>
<path d="M45.5773 39.744C44.843 37.2065 42.5231 31.0933 38.224 30.3176C33.9157 29.5401 33.9481 29.4429 33.5918 29.4429C33.5162 27.9637 33.4816 24.4803 33.9481 22.6404C34.4146 20.8004 35.5246 18.1593 36.0213 17.0687C37.425 17.5978 40.7248 18.9475 42.6943 20.1137C44.6638 21.2798 46.2575 23.1047 46.8082 23.8713C45.5022 25.1022 42.9353 28.2962 43.1154 31.2246C43.2955 34.1529 44.8317 38.1243 45.5773 39.744Z" stroke="#F6F3EE"/>
<path d="M54.8095 39.7765C55.5437 37.239 57.8637 31.1258 62.1627 30.35C66.471 29.5726 66.4386 29.4754 66.7949 29.4754C66.8705 27.9961 66.9051 24.5128 66.4386 22.6728C65.9722 20.8329 64.8621 18.1918 64.3654 17.1012C62.9617 17.6303 59.6619 18.98 57.6924 20.1462C55.7229 21.3123 54.1292 23.1371 53.5785 23.9038C54.8845 25.1347 57.4514 28.3287 57.2713 31.257C57.0912 34.1854 55.555 38.1568 54.8095 39.7765Z" stroke="#F6F3EE"/>
<path d="M45.589 61.4475C44.8547 63.985 42.5348 70.0982 38.2357 70.874C33.9274 71.6514 33.9598 71.7486 33.6035 71.7486C33.5279 73.2279 33.4933 76.7112 33.9598 78.5512C34.4263 80.3911 35.5363 83.0322 36.033 84.1228C37.4367 83.5937 40.7365 82.244 42.706 81.0778C44.6755 79.9117 46.2693 78.0869 46.8199 77.3202C45.514 76.0893 42.947 72.8953 43.1271 69.967C43.3072 67.0386 44.8434 63.0672 45.589 61.4475Z" stroke="#F6F3EE"/>
<path d="M54.8212 61.4152C55.5554 63.9527 57.8754 70.0658 62.1744 70.8416C66.4827 71.6191 66.4503 71.7162 66.8066 71.7162C66.8822 73.1955 66.9168 76.6789 66.4503 78.5188C65.9839 80.3588 64.8739 82.9999 64.3772 84.0905C62.9735 83.5614 59.6737 82.2116 57.7042 81.0455C55.7346 79.8793 54.1409 78.0545 53.5902 77.2879C54.8962 76.0569 57.4631 72.863 57.283 69.9346C57.103 67.0063 55.5668 63.0349 54.8212 61.4152Z" stroke="#F6F3EE"/>
<path d="M39.2612 45.7817C36.7237 45.0475 30.6105 42.7275 29.8348 38.4285C29.0573 34.1202 28.9602 34.1526 28.9602 33.7963C27.4809 33.7207 23.9975 33.6861 22.1576 34.1526C20.3176 34.619 17.6765 35.729 16.5859 36.2257C17.115 37.6294 18.4647 40.9292 19.6309 42.8987C20.7971 44.8683 22.6219 46.462 23.3885 47.0127C24.6195 45.7067 27.8134 43.1398 30.7418 43.3199C33.6701 43.4999 37.6415 45.0361 39.2612 45.7817Z" stroke="#F6F3EE"/>
<path d="M39.2885 55.0138C36.7511 55.7481 30.6379 58.068 29.8621 62.3671C29.0847 66.6753 28.9875 66.6429 28.9875 66.9993C27.5082 67.0749 24.0249 67.1094 22.1849 66.643C20.345 66.1765 17.7039 65.0665 16.6133 64.5698C17.1424 63.1661 18.4921 59.8663 19.6582 57.8968C20.8244 55.9273 22.6492 54.3335 23.4159 53.7828C24.6468 55.0888 27.8408 57.6558 30.7691 57.4757C33.6975 57.2956 37.6689 55.7594 39.2885 55.0138Z" stroke="#F6F3EE"/>
<path d="M60.8677 45.7817C63.4052 45.0475 69.5184 42.7275 70.2941 38.4285C71.0716 34.1202 71.1688 34.1526 71.1688 33.7963C72.648 33.7207 76.1314 33.6861 77.9713 34.1526C79.8113 34.619 82.4524 35.729 83.543 36.2257C83.0139 37.6294 81.6642 40.9292 80.498 42.8987C79.3318 44.8683 77.507 46.462 76.7404 47.0127C75.5094 45.7067 72.3155 43.1398 69.3871 43.3199C66.4588 43.4999 62.4874 45.0361 60.8677 45.7817Z" stroke="#F6F3EE"/>
<path d="M60.8325 55.0138C63.37 55.7481 69.4832 58.068 70.259 62.3671C71.0364 66.6753 71.1336 66.6429 71.1336 66.9993C72.6129 67.0749 76.0962 67.1094 77.9362 66.643C79.7761 66.1765 82.4172 65.0665 83.5078 64.5698C82.9787 63.1661 81.629 59.8663 80.4628 57.8968C79.2967 55.9273 77.4719 54.3335 76.7052 53.7828C75.4743 55.0888 72.2803 57.6558 69.352 57.4757C66.4236 57.2956 62.4522 55.7594 60.8325 55.0138Z" stroke="#F6F3EE"/>
<path d="M40.1596 34.4639C44.1663 36.307 47.5992 44.4194 48.8086 48.3282C48.849 48.4578 48.9057 49.138 49.6508 49.0085C50.2468 48.9048 50.0935 48.0583 49.9423 47.648C49.0785 46.363 46.7678 42.5752 45.7312 38.4807C44.4355 33.3625 46.4182 29.443 49.1069 25.6853C51.7955 21.9277 47.22 17.5227 43.1141 15.2547C39.7128 13.3759 35.5597 12.091 33.8105 11.5619C33.4542 13.1815 32.0873 15.9153 31.1544 17.7811L31.1542 17.7814C29.9881 20.1137 28.7571 25.7177 29.9881 29.3782C31.219 33.0386 35.3006 32.2288 40.1596 34.4639Z" stroke="#F6F3EE"/>
<path d="M54.5774 31.8441C56.1074 35.9805 52.7984 44.1443 50.8896 47.7634C50.8266 47.8836 50.3857 48.4047 51.0042 48.8399C51.4989 49.1881 51.9891 48.4811 52.1723 48.084C52.4701 46.5646 53.5146 42.2523 55.6769 38.6241C58.3797 34.0888 62.3195 32.4854 66.8777 31.7295C71.4358 30.9736 71.3153 24.6235 70.0157 20.1165C68.9392 16.3829 67.1449 12.7714 66.2821 11.1604C64.885 12.0537 61.9853 13.0203 60.0063 13.6799L60.006 13.68C57.5322 14.5046 52.3811 17.6268 50.6632 21.0855C48.9453 24.5443 52.7221 26.8278 54.5774 31.8441Z" stroke="#F6F3EE"/>
<path d="M40.0709 66.6952C44.0777 64.852 47.601 56.9503 48.8103 53.0415C48.8508 52.912 48.9075 52.2317 49.6525 52.3613C50.2486 52.4649 50.0953 53.3115 49.9441 53.7218C49.0803 55.0067 46.6144 58.6811 45.5778 62.7756C44.2821 67.8937 46.3876 71.9268 49.0763 75.6844C51.7649 79.442 47.1894 83.847 43.0835 86.115C39.6822 87.9938 35.5615 89.2788 33.8123 89.8079C33.456 88.1883 32.0891 85.4545 31.1561 83.5886L31.156 83.5884C29.9899 81.256 28.6685 75.4413 29.8995 71.7809C31.1304 68.1205 35.2119 68.9303 40.0709 66.6952Z" stroke="#F6F3EE"/>
<path d="M54.2907 69.5258C55.8207 65.3893 52.7974 57.2256 50.8887 53.6065C50.8256 53.4863 50.3847 52.9652 51.0032 52.53C51.4979 52.1818 51.9881 52.8888 52.1713 53.2859C52.4691 54.8052 53.5136 59.1176 55.6759 62.7458C58.3787 67.2811 62.985 68.5793 67.5432 69.3352C72.1013 70.0911 71.9808 76.4412 70.6812 80.9483C69.6046 84.6819 67.1439 88.5984 66.2811 90.2095C64.884 89.3162 61.9843 88.3496 60.0053 87.69L60.005 87.6899C57.5312 86.8653 52.4125 83.773 50.6946 80.3143C48.9767 76.8556 52.4354 74.5421 54.2907 69.5258Z" stroke="#F6F3EE"/>
<path d="M34.402 40.4823C36.2451 44.4891 44.3575 47.922 48.2663 49.1313C48.3959 49.1717 49.0762 49.2285 48.9466 49.9735C48.8429 50.5695 47.9964 50.4162 47.5861 50.2651C46.3011 49.4012 42.6753 46.9029 38.5807 45.8664C33.4626 44.5706 29.3811 47.0001 25.6235 49.6888C21.8658 52.3774 17.4608 47.8019 15.1928 43.696C13.314 40.2947 12.0291 35.8825 11.5 34.1332C13.1196 33.7769 15.8534 32.41 17.7193 31.4771L17.7195 31.477C20.0518 30.3108 25.6558 29.0799 29.3163 30.3108C32.9767 31.5418 32.1669 35.6233 34.402 40.4823Z" stroke="#F6F3EE"/>
<path d="M31.7804 54.5482C35.9169 56.0782 44.0807 53.1197 47.6998 51.2109C47.82 51.1479 48.3411 50.707 48.7763 51.3254C49.1245 51.8202 48.4175 52.3104 48.0204 52.4936C46.501 52.7914 42.1425 53.5516 38.5143 55.7139C33.979 58.4167 32.5163 62.8537 31.7604 67.4119C31.0045 71.9701 24.6543 71.8495 20.1473 70.55C16.4137 69.4734 12.7078 67.4662 11.0968 66.6034C11.9901 65.2062 12.9567 62.3066 13.6163 60.3276L13.6164 60.3273C14.441 57.8535 17.5332 52.67 20.992 50.9521C24.4507 49.2341 26.7641 52.6929 31.7804 54.5482Z" stroke="#F6F3EE"/>
<path d="M66.0452 40.1975C64.2021 44.2043 56.3651 47.922 52.4563 49.1313C52.3268 49.1717 51.6465 49.2285 51.7761 49.9735C51.8797 50.5696 52.7263 50.4162 53.1366 50.2651C54.4215 49.4012 58.1607 46.9029 62.2552 45.8664C67.3733 44.5706 71.3416 46.6762 75.0992 49.3648C78.8568 52.0535 83.2618 47.478 85.5298 43.3721C87.4086 39.9708 88.6936 35.8825 89.2227 34.1333C87.6031 33.777 84.8692 32.41 83.0034 31.4771L83.0032 31.477C80.6708 30.3108 74.7913 28.7951 71.1309 30.0261C67.4705 31.257 68.2803 35.3386 66.0452 40.1975Z" stroke="#F6F3EE"/>
<path d="M68.9434 54.3539C64.8069 55.8839 56.6431 53.1198 53.024 51.211C52.9038 51.148 52.3827 50.7071 51.9475 51.3255C51.5993 51.8203 52.3063 52.3105 52.7033 52.4937L52.7425 52.5014C54.2978 52.8061 58.6928 53.6671 62.2904 55.8111C66.8256 58.514 67.7701 63.2101 68.526 67.7683C69.2818 72.3265 75.632 72.2059 80.139 70.9064C83.8726 69.8298 88.0159 67.4663 89.627 66.6035C88.7337 65.2064 87.7671 62.3067 87.1074 60.3277L87.1074 60.3274C86.2828 57.8536 83.1906 52.4757 79.7318 50.7578C76.2731 49.0399 73.9597 52.4986 68.9434 54.3539Z" stroke="#F6F3EE"/>
<path d="M17.4152 111.82H20.4022C21.3677 111.82 22.1974 111.998 22.8913 112.353C23.5853 112.708 24.1208 113.225 24.498 113.904C24.8751 114.568 25.0637 115.363 25.0637 116.289C25.0637 116.999 24.9279 117.64 24.6564 118.211C24.3848 118.767 24.0228 119.238 23.5702 119.624C23.1176 120.01 22.6047 120.303 22.0314 120.504C21.4582 120.689 20.8623 120.758 20.2438 120.712C19.6403 120.666 19.052 120.488 18.4787 120.179V119.948C18.4787 119.948 18.607 119.971 18.8634 120.017C19.1199 120.048 19.4442 120.056 19.8365 120.04C20.2438 120.01 20.6662 119.925 21.1037 119.786C21.5562 119.631 21.9711 119.369 22.3482 118.998C22.7405 118.628 23.0346 118.111 23.2308 117.447C23.276 117.277 23.3137 117.069 23.3439 116.822C23.3741 116.559 23.3816 116.305 23.3665 116.058C23.3514 114.993 23.0799 114.136 22.5519 113.487C22.0239 112.839 21.2772 112.515 20.3117 112.515H17.6415C17.6415 112.515 17.6188 112.461 17.5736 112.353C17.5434 112.229 17.5057 112.114 17.4604 112.006C17.4303 111.882 17.4152 111.82 17.4152 111.82ZM17.7094 111.82V128.029H16.2385V111.82H17.7094ZM16.3064 126.339V128.029H14.4961V127.797C14.4961 127.797 14.5414 127.797 14.6319 127.797C14.7375 127.797 14.7903 127.797 14.7903 127.797C15.1825 127.797 15.5144 127.659 15.7859 127.381C16.0726 127.087 16.2234 126.74 16.2385 126.339H16.3064ZM16.3064 113.511H16.2385C16.2385 113.109 16.0952 112.77 15.8086 112.492C15.5219 112.198 15.1825 112.052 14.7903 112.052C14.7903 112.052 14.745 112.052 14.6545 112.052C14.564 112.052 14.5187 112.052 14.5187 112.052L14.4961 111.82H16.3064V113.511ZM17.6415 126.339H17.7094C17.7245 126.74 17.8678 127.087 18.1393 127.381C18.4259 127.659 18.7654 127.797 19.1576 127.797C19.1576 127.797 19.2029 127.797 19.2934 127.797C19.399 127.797 19.4518 127.797 19.4518 127.797V128.029H17.6415V126.339Z" fill="#F6F3EE"/>
<path d="M31.5997 111.496L38.2977 127.89H36.3743L31.1471 113.696L31.5997 111.496ZM26.7345 126.339C26.6289 126.647 26.6138 126.91 26.6892 127.126C26.7647 127.342 26.8853 127.512 27.0513 127.635C27.2323 127.743 27.4134 127.797 27.5944 127.797H27.798V128.029H23.2497V127.797C23.2497 127.797 23.2874 127.797 23.3628 127.797C23.4232 127.797 23.4533 127.797 23.4533 127.797C23.8003 127.797 24.1548 127.689 24.5169 127.473C24.894 127.242 25.2033 126.864 25.4447 126.339H26.7345ZM31.5997 111.496L31.8033 113.117L26.1235 127.96H24.7658L30.5587 113.881C30.5587 113.881 30.5965 113.788 30.6719 113.603C30.7624 113.403 30.8605 113.163 30.9661 112.885C31.0867 112.608 31.1848 112.337 31.2602 112.075C31.3507 111.813 31.396 111.62 31.396 111.496H31.5997ZM34.7903 121.708V122.402H27.7075V121.708H34.7903ZM35.8086 126.339H37.6641C37.8904 126.864 38.1921 127.242 38.5693 127.473C38.9464 127.689 39.3085 127.797 39.6555 127.797C39.6555 127.797 39.6856 127.797 39.746 127.797C39.8063 127.797 39.8365 127.797 39.8365 127.797V128.029H34.745V127.797H34.9487C35.2353 127.797 35.4918 127.674 35.7181 127.427C35.9444 127.165 35.9745 126.802 35.8086 126.339Z" fill="#F6F3EE"/>
<path d="M44.134 111.496C44.3754 111.496 44.6318 111.512 44.9034 111.542C45.19 111.573 45.4615 111.62 45.718 111.681C45.9895 111.728 46.2309 111.782 46.4421 111.843C46.6684 111.89 46.8419 111.944 46.9626 112.006V114.576H46.7589C46.7589 113.835 46.51 113.256 46.0122 112.839C45.5143 112.407 44.9109 112.191 44.2019 112.191C43.3722 112.191 42.7008 112.461 42.1879 113.001C41.675 113.526 41.4186 114.144 41.4186 114.854C41.4186 115.147 41.4789 115.494 41.5996 115.896C41.7353 116.282 41.9767 116.644 42.3237 116.984L46.7815 121.198C47.2341 121.63 47.5358 122.094 47.6867 122.588C47.8375 123.081 47.913 123.56 47.913 124.023C47.913 125.304 47.5283 126.346 46.7589 127.149C46.0046 127.952 44.9788 128.353 43.6814 128.353C43.3194 128.353 42.8894 128.315 42.3916 128.237C41.9088 128.16 41.4336 128.029 40.966 127.844C40.5134 127.643 40.1363 127.388 39.8345 127.08C39.7893 126.833 39.7667 126.524 39.7667 126.153C39.7667 125.783 39.7968 125.397 39.8572 124.996C39.9175 124.579 40.0005 124.201 40.1061 123.861H40.3097C40.2343 124.648 40.3324 125.335 40.6039 125.922C40.8755 126.508 41.2677 126.956 41.7806 127.265C42.3086 127.558 42.9045 127.689 43.5683 127.659C44.398 127.612 45.107 127.319 45.6954 126.779C46.2988 126.223 46.6005 125.482 46.6005 124.556C46.6005 124.108 46.5251 123.707 46.3742 123.352C46.2234 122.981 46.0046 122.665 45.718 122.402L41.3733 118.281C40.9207 117.848 40.6039 117.378 40.4229 116.868C40.2419 116.343 40.1513 115.857 40.1513 115.409C40.1513 114.761 40.3022 114.136 40.6039 113.534C40.9056 112.932 41.3507 112.445 41.939 112.075C42.5424 111.689 43.2741 111.496 44.134 111.496ZM46.9626 111.728V112.214H45.2428V111.728H46.9626Z" fill="#F6F3EE"/>
<path d="M63.3595 111.82V128.029H61.8887V111.82H63.3595ZM52.6335 111.82V128.029H51.1627V111.82H52.6335ZM62.0923 119.67V120.365H52.4072V119.67H62.0923ZM51.2306 126.339V128.029H49.4203V127.797C49.4203 127.797 49.4655 127.797 49.556 127.797C49.6616 127.797 49.7144 127.797 49.7144 127.797C50.1067 127.797 50.4386 127.659 50.7101 127.381C50.9967 127.087 51.1476 126.74 51.1627 126.339H51.2306ZM51.2306 113.511H51.1627C51.1476 113.109 50.9967 112.77 50.7101 112.492C50.4386 112.198 50.1067 112.052 49.7144 112.052C49.7144 112.052 49.6616 112.052 49.556 112.052C49.4655 112.052 49.4203 112.052 49.4203 112.052V111.82H51.2306V113.511ZM52.5656 126.339H52.6335C52.6486 126.74 52.7919 127.087 53.0635 127.381C53.3501 127.659 53.6895 127.797 54.0818 127.797C54.0818 127.797 54.127 127.797 54.2175 127.797C54.3081 127.797 54.3609 127.797 54.3759 127.797V128.029H52.5656V126.339ZM52.5656 113.511V111.82H54.3759V112.052C54.3609 112.052 54.3081 112.052 54.2175 112.052C54.127 112.052 54.0818 112.052 54.0818 112.052C53.6895 112.052 53.3501 112.198 53.0635 112.492C52.7919 112.77 52.6486 113.109 52.6335 113.511H52.5656ZM61.9565 126.339V128.029H60.1462V127.797C60.1613 127.797 60.2141 127.797 60.3046 127.797C60.3952 127.797 60.4404 127.797 60.4404 127.797C60.8327 127.797 61.1721 127.659 61.4587 127.381C61.7453 127.087 61.8887 126.74 61.8887 126.339H61.9565ZM61.9565 113.511H61.8887C61.8887 113.109 61.7453 112.77 61.4587 112.492C61.1721 112.198 60.8327 112.052 60.4404 112.052C60.4404 112.052 60.3952 112.052 60.3046 112.052C60.2141 112.052 60.1613 112.052 60.1462 112.052V111.82H61.9565V113.511ZM63.2916 126.339H63.3595C63.3746 126.74 63.5179 127.087 63.7895 127.381C64.0761 127.659 64.4155 127.797 64.8078 127.797C64.8078 127.797 64.853 127.797 64.9435 127.797C65.0491 127.797 65.1019 127.797 65.1019 127.797V128.029H63.2916V126.339ZM63.2916 113.511V111.82H65.1019V112.052C65.1019 112.052 65.0491 112.052 64.9435 112.052C64.853 112.052 64.8078 112.052 64.8078 112.052C64.4155 112.052 64.0761 112.198 63.7895 112.492C63.5179 112.77 63.3746 113.109 63.3595 113.511H63.2916Z" fill="#F6F3EE"/>
<path d="M82.1068 111.496L82.2879 113.048L76.6081 125.991C76.6081 125.991 76.5477 126.123 76.427 126.385C76.3214 126.647 76.2083 126.964 76.0876 127.334C75.9669 127.689 75.884 128.029 75.8387 128.353H75.6124L75.2956 126.894L82.1068 111.496ZM68.1902 126.339V128.029H65.6784V127.797C65.6935 127.797 65.7539 127.797 65.8595 127.797C65.9801 127.797 66.0405 127.797 66.0405 127.797C66.4478 127.797 66.8099 127.674 67.1267 127.427C67.4435 127.165 67.632 126.802 67.6924 126.339H68.1902ZM68.8464 126.709C68.8464 126.725 68.8464 126.74 68.8464 126.755C68.8464 126.771 68.8464 126.794 68.8464 126.825C68.8464 127.072 68.9294 127.303 69.0954 127.52C69.2764 127.72 69.4876 127.821 69.729 127.821H70.0684V128.029H68.688V126.709H68.8464ZM69.3895 111.496H69.6158L70.0684 112.862L68.7333 128.029H67.5114L69.3895 111.496ZM69.6158 111.496L76.1329 125.922L75.6124 128.353L69.1859 114.089L69.6158 111.496ZM82.3105 111.496L84.2566 128.029H82.4915L81.247 113.997L82.1068 111.496H82.3105ZM83.5777 126.339H84.0529C84.1283 126.802 84.3244 127.165 84.6413 127.427C84.9581 127.674 85.3126 127.797 85.7048 127.797C85.7048 127.797 85.7651 127.797 85.8858 127.797C86.0065 127.797 86.0669 127.797 86.0669 127.797V128.029H83.5777V126.339ZM82.3784 126.709H82.5368V128.029H81.1564V127.821H81.4959C81.7523 127.821 81.9635 127.72 82.1295 127.52C82.2954 127.303 82.3784 127.072 82.3784 126.825C82.3784 126.794 82.3784 126.771 82.3784 126.755C82.3784 126.74 82.3784 126.725 82.3784 126.709Z" fill="#F6F3EE"/>
<path d="M15.6936 139.378C15.6836 139.378 15.6786 139.362 15.6786 139.331C15.6786 139.301 15.6836 139.285 15.6936 139.285C15.8847 139.285 16.023 139.272 16.1085 139.247C16.199 139.221 16.2594 139.172 16.2895 139.1C16.3247 139.023 16.3423 138.907 16.3423 138.753V135.179C16.3423 135.025 16.3247 134.911 16.2895 134.839C16.2594 134.767 16.199 134.718 16.1085 134.693C16.023 134.662 15.8847 134.646 15.6936 134.646C15.6836 134.646 15.6786 134.631 15.6786 134.6C15.6786 134.569 15.6836 134.554 15.6936 134.554H18.7259C18.7711 134.554 18.7938 134.577 18.7938 134.623L18.8089 135.573C18.8089 135.588 18.7938 135.598 18.7636 135.603C18.7385 135.603 18.7259 135.596 18.7259 135.58C18.7108 135.308 18.6303 135.097 18.4845 134.947C18.3387 134.793 18.1451 134.716 17.9037 134.716H17.4436C17.2676 134.716 17.1368 134.731 17.0514 134.762C16.9659 134.788 16.9055 134.834 16.8703 134.901C16.8402 134.968 16.8251 135.073 16.8251 135.218V138.722C16.8251 138.861 16.8402 138.966 16.8703 139.038C16.9055 139.105 16.9634 139.151 17.0438 139.177C17.1243 139.203 17.25 139.216 17.421 139.216H18.0244C18.2658 139.216 18.4669 139.128 18.6278 138.953C18.7887 138.778 18.8969 138.536 18.9522 138.228C18.9522 138.217 18.9622 138.212 18.9823 138.212C18.9974 138.212 19.01 138.217 19.0201 138.228C19.0351 138.233 19.0427 138.238 19.0427 138.243C18.9974 138.567 18.9748 138.907 18.9748 139.262C18.9748 139.303 18.9647 139.334 18.9446 139.355C18.9295 139.37 18.8994 139.378 18.8541 139.378H15.6936ZM18.4317 137.579C18.4317 137.353 18.3764 137.191 18.2658 137.093C18.1602 136.995 17.9817 136.946 17.7302 136.946H16.5988V136.784H17.7529C17.9942 136.784 18.1652 136.743 18.2658 136.661C18.3714 136.579 18.4242 136.44 18.4242 136.244C18.4242 136.234 18.4393 136.229 18.4694 136.229C18.4996 136.229 18.5147 136.234 18.5147 136.244L18.5071 136.869C18.5071 137.018 18.5097 137.132 18.5147 137.209L18.5222 137.579C18.5222 137.59 18.5071 137.595 18.477 137.595C18.4468 137.595 18.4317 137.59 18.4317 137.579Z" fill="#F6F3EE"/>
<path d="M22.0833 139.378C22.0732 139.378 22.0682 139.362 22.0682 139.331C22.0682 139.301 22.0732 139.285 22.0833 139.285C22.2191 139.285 22.3171 139.275 22.3775 139.254C22.4378 139.234 22.468 139.2 22.468 139.154C22.468 139.108 22.4454 139.051 22.4001 138.984L19.9713 135.21C19.8405 135.004 19.7098 134.86 19.5791 134.778C19.4533 134.69 19.3025 134.646 19.1265 134.646C19.1164 134.646 19.1114 134.631 19.1114 134.6C19.1114 134.569 19.1164 134.554 19.1265 134.554L19.4131 134.561C19.5439 134.572 19.6394 134.577 19.6997 134.577C19.8707 134.577 20.0769 134.572 20.3183 134.561L20.7105 134.554C20.7256 134.554 20.7331 134.569 20.7331 134.6C20.7331 134.631 20.7256 134.646 20.7105 134.646C20.5797 134.646 20.4817 134.657 20.4163 134.677C20.356 134.698 20.3258 134.734 20.3258 134.785C20.3258 134.826 20.3484 134.883 20.3937 134.955L22.8376 138.737C22.9683 138.938 23.1016 139.079 23.2374 139.162C23.3782 139.244 23.5516 139.285 23.7578 139.285C23.7679 139.285 23.7729 139.301 23.7729 139.331C23.7729 139.362 23.7679 139.378 23.7578 139.378C23.6271 139.378 23.524 139.375 23.4486 139.37L23.0337 139.362L22.4529 139.37C22.3624 139.375 22.2392 139.378 22.0833 139.378ZM19.0963 139.378C19.0812 139.378 19.0737 139.362 19.0737 139.331C19.0737 139.301 19.0812 139.285 19.0963 139.285C19.4433 139.285 19.7852 139.051 20.1221 138.583L21.2611 136.985L21.3516 137.07L20.2881 138.59C20.1724 138.765 20.1146 138.907 20.1146 139.015C20.1146 139.195 20.2629 139.285 20.5596 139.285C20.5747 139.285 20.5823 139.301 20.5823 139.331C20.5823 139.362 20.5747 139.378 20.5596 139.378C20.4088 139.378 20.2931 139.375 20.2127 139.37L19.6922 139.362L19.3754 139.37C19.3201 139.375 19.2271 139.378 19.0963 139.378ZM21.3743 136.869L22.3926 135.395C22.5283 135.199 22.5962 135.04 22.5962 134.916C22.5962 134.736 22.4554 134.646 22.1738 134.646C22.1587 134.646 22.1512 134.631 22.1512 134.6C22.1512 134.569 22.1587 134.554 22.1738 134.554L22.5132 134.561C22.7043 134.572 22.8778 134.577 23.0337 134.577C23.1242 134.577 23.2298 134.572 23.3505 134.561L23.6296 134.554C23.6447 134.554 23.6522 134.569 23.6522 134.6C23.6522 134.631 23.6447 134.646 23.6296 134.646C23.4636 134.646 23.2902 134.711 23.1091 134.839C22.9281 134.968 22.7471 135.158 22.566 135.41L21.4723 136.946L21.3743 136.869Z" fill="#F6F3EE"/>
<path d="M24.8843 138.722C24.8843 138.886 24.9044 139.007 24.9446 139.084C24.9899 139.156 25.0729 139.208 25.1936 139.239C25.3193 139.27 25.5154 139.285 25.7819 139.285C25.797 139.285 25.8045 139.301 25.8045 139.331C25.8045 139.362 25.797 139.378 25.7819 139.378C25.5757 139.378 25.4148 139.375 25.2992 139.37L24.6429 139.362L24.1376 139.37C24.042 139.375 23.9138 139.378 23.7529 139.378C23.7428 139.378 23.7378 139.362 23.7378 139.331C23.7378 139.301 23.7428 139.285 23.7529 139.285C23.944 139.285 24.0822 139.272 24.1677 139.247C24.2582 139.221 24.3186 139.172 24.3488 139.1C24.3789 139.023 24.394 138.907 24.394 138.753V135.179C24.394 135.025 24.3789 134.911 24.3488 134.839C24.3186 134.767 24.2582 134.718 24.1677 134.693C24.0822 134.662 23.944 134.646 23.7529 134.646C23.7428 134.646 23.7378 134.631 23.7378 134.6C23.7378 134.569 23.7428 134.554 23.7529 134.554L24.13 134.561C24.3412 134.572 24.5097 134.577 24.6354 134.577C24.7611 134.577 24.9019 134.569 25.0578 134.554C25.1181 134.554 25.2137 134.551 25.3444 134.546C25.4752 134.536 25.5883 134.531 25.6838 134.531C26.1465 134.531 26.5161 134.636 26.7927 134.847C27.0743 135.058 27.2151 135.38 27.2151 135.812C27.2151 136.151 27.1321 136.437 26.9661 136.669C26.8052 136.9 26.5965 137.073 26.3401 137.186C26.0836 137.299 25.8196 137.356 25.5481 137.356C25.4022 137.356 25.2816 137.343 25.186 137.317C25.1709 137.317 25.1634 137.304 25.1634 137.278C25.1634 137.263 25.1659 137.247 25.1709 137.232C25.181 137.217 25.191 137.211 25.2011 137.217C25.2816 137.237 25.3721 137.247 25.4726 137.247C25.8045 137.247 26.0836 137.137 26.3099 136.916C26.5412 136.694 26.6569 136.375 26.6569 135.958C26.6569 135.552 26.5488 135.233 26.3325 135.001C26.1163 134.765 25.8397 134.646 25.5028 134.646C25.3218 134.646 25.191 134.657 25.1106 134.677C25.0301 134.698 24.9723 134.747 24.9371 134.824C24.9019 134.896 24.8843 135.019 24.8843 135.194V138.722Z" fill="#F6F3EE"/>
<path d="M27.4034 139.378C27.3933 139.378 27.3883 139.362 27.3883 139.331C27.3883 139.301 27.3933 139.285 27.4034 139.285C27.5945 139.285 27.7328 139.272 27.8182 139.247C27.9088 139.221 27.9691 139.172 27.9993 139.1C28.0345 139.023 28.0521 138.907 28.0521 138.753V135.179C28.0521 135.025 28.0345 134.911 27.9993 134.839C27.9691 134.767 27.9088 134.718 27.8182 134.693C27.7328 134.662 27.5945 134.646 27.4034 134.646C27.3933 134.646 27.3883 134.631 27.3883 134.6C27.3883 134.569 27.3933 134.554 27.4034 134.554H30.4356C30.4809 134.554 30.5035 134.577 30.5035 134.623L30.5186 135.573C30.5186 135.588 30.5035 135.598 30.4733 135.603C30.4482 135.603 30.4356 135.596 30.4356 135.58C30.4205 135.308 30.3401 135.097 30.1943 134.947C30.0484 134.793 29.8548 134.716 29.6135 134.716H29.1533C28.9773 134.716 28.8466 134.731 28.7611 134.762C28.6756 134.788 28.6153 134.834 28.5801 134.901C28.5499 134.968 28.5348 135.073 28.5348 135.218V138.722C28.5348 138.861 28.5499 138.966 28.5801 139.038C28.6153 139.105 28.6731 139.151 28.7536 139.177C28.834 139.203 28.9597 139.216 29.1307 139.216H29.7341C29.9755 139.216 30.1767 139.128 30.3376 138.953C30.4985 138.778 30.6066 138.536 30.6619 138.228C30.6619 138.217 30.672 138.212 30.6921 138.212C30.7072 138.212 30.7197 138.217 30.7298 138.228C30.7449 138.233 30.7524 138.238 30.7524 138.243C30.7072 138.567 30.6845 138.907 30.6845 139.262C30.6845 139.303 30.6745 139.334 30.6544 139.355C30.6393 139.37 30.6091 139.378 30.5639 139.378H27.4034ZM30.1415 137.579C30.1415 137.353 30.0861 137.191 29.9755 137.093C29.8699 136.995 29.6914 136.946 29.44 136.946H28.3085V136.784H29.4626C29.704 136.784 29.8749 136.743 29.9755 136.661C30.0811 136.579 30.1339 136.44 30.1339 136.244C30.1339 136.234 30.149 136.229 30.1792 136.229C30.2093 136.229 30.2244 136.234 30.2244 136.244L30.2169 136.869C30.2169 137.018 30.2194 137.132 30.2244 137.209L30.232 137.579C30.232 137.59 30.2169 137.595 30.1867 137.595C30.1565 137.595 30.1415 137.59 30.1415 137.579Z" fill="#F6F3EE"/>
<path d="M34.8566 139.378C34.7309 139.378 34.4895 139.159 34.1325 138.722C33.7805 138.279 33.3556 137.672 32.8577 136.9L33.2801 136.769C33.7176 137.412 34.0822 137.914 34.3738 138.274C34.6705 138.629 34.932 138.886 35.1583 139.046C35.3846 139.205 35.6059 139.285 35.8221 139.285C35.8372 139.285 35.8447 139.301 35.8447 139.331C35.8447 139.362 35.8372 139.378 35.8221 139.378H34.8566ZM32.9558 134.531C33.353 134.531 33.6598 134.623 33.876 134.808C34.0922 134.994 34.2004 135.241 34.2004 135.549C34.2004 135.822 34.1224 136.072 33.9665 136.298C33.8106 136.519 33.5994 136.697 33.3329 136.831C33.0714 136.959 32.7898 137.024 32.4881 137.024C32.458 137.024 32.3448 137.016 32.1487 137V138.753C32.1487 138.912 32.1638 139.028 32.1939 139.1C32.2241 139.172 32.2819 139.221 32.3674 139.247C32.4579 139.272 32.5988 139.285 32.7898 139.285C32.8049 139.285 32.8125 139.301 32.8125 139.331C32.8125 139.362 32.8049 139.378 32.7898 139.378C32.634 139.378 32.5107 139.375 32.4202 139.37L31.8998 139.362L31.3869 139.37C31.2963 139.375 31.1681 139.378 31.0022 139.378C30.9921 139.378 30.9871 139.362 30.9871 139.331C30.9871 139.301 30.9921 139.285 31.0022 139.285C31.1933 139.285 31.3341 139.272 31.4246 139.247C31.5151 139.216 31.5779 139.164 31.6131 139.092C31.6483 139.02 31.6659 138.907 31.6659 138.753V135.179C31.6659 135.025 31.6483 134.911 31.6131 134.839C31.583 134.767 31.5226 134.718 31.4321 134.693C31.3466 134.662 31.2083 134.646 31.0173 134.646C31.0022 134.646 30.9946 134.631 30.9946 134.6C30.9946 134.569 31.0022 134.554 31.0173 134.554L31.3869 134.561C31.5981 134.572 31.769 134.577 31.8998 134.577C32.0104 134.577 32.1135 134.574 32.209 134.569C32.3046 134.564 32.385 134.559 32.4504 134.554C32.6415 134.538 32.81 134.531 32.9558 134.531ZM33.6874 135.773C33.6874 135.372 33.5994 135.084 33.4234 134.909C33.2525 134.734 33.001 134.646 32.6691 134.646C32.473 134.646 32.3373 134.682 32.2618 134.754C32.1864 134.826 32.1487 134.973 32.1487 135.194V136.815C32.2694 136.836 32.4177 136.846 32.5937 136.846C32.986 136.846 33.265 136.759 33.431 136.584C33.602 136.409 33.6874 136.139 33.6874 135.773Z" fill="#F6F3EE"/>
<path d="M36.8015 138.753C36.8015 138.912 36.8166 139.028 36.8468 139.1C36.877 139.172 36.9348 139.221 37.0203 139.247C37.1108 139.272 37.2516 139.285 37.4427 139.285C37.4578 139.285 37.4653 139.301 37.4653 139.331C37.4653 139.362 37.4578 139.378 37.4427 139.378C37.2918 139.378 37.1711 139.375 37.0806 139.37L36.5451 139.362L36.0246 139.37C35.9341 139.375 35.8109 139.378 35.655 139.378C35.6399 139.378 35.6324 139.362 35.6324 139.331C35.6324 139.301 35.6399 139.285 35.655 139.285C35.8461 139.285 35.9844 139.272 36.0699 139.247C36.1604 139.221 36.2207 139.172 36.2509 139.1C36.2861 139.023 36.3037 138.907 36.3037 138.753V135.179C36.3037 135.025 36.2861 134.911 36.2509 134.839C36.2207 134.767 36.1604 134.718 36.0699 134.693C35.9844 134.662 35.8461 134.646 35.655 134.646C35.6399 134.646 35.6324 134.631 35.6324 134.6C35.6324 134.569 35.6399 134.554 35.655 134.554L36.0246 134.561C36.2358 134.572 36.4093 134.577 36.5451 134.577C36.6959 134.577 36.877 134.572 37.0882 134.561L37.4427 134.554C37.4578 134.554 37.4653 134.569 37.4653 134.6C37.4653 134.631 37.4578 134.646 37.4427 134.646C37.2566 134.646 37.1183 134.662 37.0278 134.693C36.9373 134.724 36.877 134.778 36.8468 134.855C36.8166 134.927 36.8015 135.04 36.8015 135.194V138.753Z" fill="#F6F3EE"/>
<path d="M37.6767 139.378C37.6667 139.378 37.6617 139.362 37.6617 139.331C37.6617 139.301 37.6667 139.285 37.6767 139.285C37.8678 139.285 38.0061 139.272 38.0916 139.247C38.1821 139.221 38.2425 139.172 38.2726 139.1C38.3078 139.023 38.3254 138.907 38.3254 138.753V135.179C38.3254 135.025 38.3078 134.911 38.2726 134.839C38.2425 134.767 38.1821 134.718 38.0916 134.693C38.0061 134.662 37.8678 134.646 37.6767 134.646C37.6667 134.646 37.6617 134.631 37.6617 134.6C37.6617 134.569 37.6667 134.554 37.6767 134.554H40.709C40.7542 134.554 40.7769 134.577 40.7769 134.623L40.792 135.573C40.792 135.588 40.7769 135.598 40.7467 135.603C40.7216 135.603 40.709 135.596 40.709 135.58C40.6939 135.308 40.6134 135.097 40.4676 134.947C40.3218 134.793 40.1282 134.716 39.8868 134.716H39.4267C39.2507 134.716 39.12 134.731 39.0345 134.762C38.949 134.788 38.8886 134.834 38.8534 134.901C38.8233 134.968 38.8082 135.073 38.8082 135.218V138.722C38.8082 138.861 38.8233 138.966 38.8534 139.038C38.8886 139.105 38.9465 139.151 39.0269 139.177C39.1074 139.203 39.2331 139.216 39.4041 139.216H40.0075C40.2489 139.216 40.45 139.128 40.6109 138.953C40.7718 138.778 40.88 138.536 40.9353 138.228C40.9353 138.217 40.9453 138.212 40.9654 138.212C40.9805 138.212 40.9931 138.217 41.0032 138.228C41.0182 138.233 41.0258 138.238 41.0258 138.243C40.9805 138.567 40.9579 138.907 40.9579 139.262C40.9579 139.303 40.9478 139.334 40.9277 139.355C40.9126 139.37 40.8825 139.378 40.8372 139.378H37.6767ZM40.4148 137.579C40.4148 137.353 40.3595 137.191 40.2489 137.093C40.1433 136.995 39.9648 136.946 39.7133 136.946H38.5819V136.784H39.736C39.9773 136.784 40.1483 136.743 40.2489 136.661C40.3545 136.579 40.4073 136.44 40.4073 136.244C40.4073 136.234 40.4224 136.229 40.4525 136.229C40.4827 136.229 40.4978 136.234 40.4978 136.244L40.4902 136.869C40.4902 137.018 40.4928 137.132 40.4978 137.209L40.5053 137.579C40.5053 137.59 40.4902 137.595 40.4601 137.595C40.4299 137.595 40.4148 137.59 40.4148 137.579Z" fill="#F6F3EE"/>
<path d="M41.8563 134.731L42.0298 134.747V138.536C42.0298 138.804 42.0751 138.997 42.1656 139.115C42.2611 139.229 42.412 139.285 42.6182 139.285C42.6332 139.285 42.6408 139.301 42.6408 139.331C42.6408 139.362 42.6332 139.378 42.6182 139.378C42.4924 139.378 42.3969 139.375 42.3315 139.37L41.9544 139.362L41.5697 139.37C41.4993 139.375 41.3962 139.378 41.2604 139.378C41.2504 139.378 41.2454 139.362 41.2454 139.331C41.2454 139.301 41.2504 139.285 41.2604 139.285C41.4767 139.285 41.63 139.229 41.7206 139.115C41.8111 138.997 41.8563 138.804 41.8563 138.536V134.731ZM45.6579 139.47C45.6579 139.481 45.6454 139.488 45.6202 139.494C45.5951 139.499 45.5775 139.496 45.5674 139.486L42.0977 135.187C41.9368 134.986 41.7884 134.847 41.6527 134.77C41.5219 134.687 41.3912 134.646 41.2604 134.646C41.2454 134.646 41.2378 134.631 41.2378 134.6C41.2378 134.569 41.2454 134.554 41.2604 134.554L41.5395 134.561C41.5999 134.567 41.6828 134.569 41.7884 134.569C41.8991 134.569 41.9896 134.567 42.06 134.561C42.1304 134.556 42.1857 134.554 42.2259 134.554C42.2611 134.554 42.2888 134.564 42.3089 134.585C42.334 134.6 42.3617 134.636 42.3919 134.693C42.4522 134.785 42.5151 134.873 42.5804 134.955L45.5976 138.745L45.6579 139.47ZM45.6579 139.47L45.4845 139.231V135.403C45.4845 135.135 45.4392 134.942 45.3487 134.824C45.2632 134.706 45.1174 134.646 44.9112 134.646C44.9011 134.646 44.8961 134.631 44.8961 134.6C44.8961 134.569 44.9011 134.554 44.9112 134.554L45.2054 134.561C45.3562 134.572 45.4794 134.577 45.575 134.577C45.6655 134.577 45.7912 134.572 45.9521 134.561L46.2614 134.554C46.2765 134.554 46.284 134.569 46.284 134.6C46.284 134.631 46.2765 134.646 46.2614 134.646C46.0502 134.646 45.8968 134.706 45.8013 134.824C45.7057 134.942 45.6579 135.135 45.6579 135.403V139.47Z" fill="#F6F3EE"/>
<path d="M49.0791 134.469C49.3959 134.469 49.6624 134.492 49.8787 134.538C50.0949 134.585 50.3111 134.664 50.5274 134.778C50.5626 134.798 50.5827 134.816 50.5877 134.832C50.5927 134.847 50.6003 134.886 50.6103 134.947L50.7008 135.866C50.7008 135.881 50.6858 135.892 50.6556 135.897C50.6304 135.897 50.6154 135.889 50.6103 135.874C50.379 135.014 49.8611 134.585 49.0565 134.585C48.6341 134.585 48.2595 134.68 47.9326 134.87C47.6108 135.061 47.3619 135.333 47.1859 135.688C47.0099 136.038 46.9219 136.447 46.9219 136.916C46.9219 137.363 47.0199 137.775 47.216 138.151C47.4121 138.521 47.6736 138.814 48.0005 139.03C48.3324 139.247 48.6919 139.355 49.0791 139.355C49.4915 139.355 49.8259 139.252 50.0823 139.046C50.3388 138.84 50.5349 138.526 50.6707 138.104C50.6707 138.094 50.6832 138.089 50.7084 138.089C50.7436 138.089 50.7612 138.096 50.7612 138.112L50.6858 138.961C50.6807 139.023 50.6732 139.061 50.6631 139.077C50.6531 139.092 50.633 139.11 50.6028 139.131C50.3413 139.259 50.0949 139.349 49.8636 139.401C49.6373 139.452 49.3758 139.478 49.0791 139.478C48.5511 139.478 48.0784 139.373 47.6611 139.162C47.2487 138.946 46.9269 138.644 46.6956 138.259C46.4643 137.873 46.3486 137.43 46.3486 136.931C46.3486 136.447 46.4668 136.02 46.7031 135.65C46.9395 135.274 47.2638 134.983 47.6761 134.778C48.0935 134.572 48.5612 134.469 49.0791 134.469Z" fill="#F6F3EE"/>
<path d="M51.0218 139.378C51.0117 139.378 51.0067 139.362 51.0067 139.331C51.0067 139.301 51.0117 139.285 51.0218 139.285C51.2129 139.285 51.3511 139.272 51.4366 139.247C51.5271 139.221 51.5875 139.172 51.6177 139.1C51.6529 139.023 51.6705 138.907 51.6705 138.753V135.179C51.6705 135.025 51.6529 134.911 51.6177 134.839C51.5875 134.767 51.5271 134.718 51.4366 134.693C51.3511 134.662 51.2129 134.646 51.0218 134.646C51.0117 134.646 51.0067 134.631 51.0067 134.6C51.0067 134.569 51.0117 134.554 51.0218 134.554H54.054C54.0993 134.554 54.1219 134.577 54.1219 134.623L54.137 135.573C54.137 135.588 54.1219 135.598 54.0917 135.603C54.0666 135.603 54.054 135.596 54.054 135.58C54.0389 135.308 53.9585 135.097 53.8126 134.947C53.6668 134.793 53.4732 134.716 53.2318 134.716H52.7717C52.5957 134.716 52.465 134.731 52.3795 134.762C52.294 134.788 52.2337 134.834 52.1985 134.901C52.1683 134.968 52.1532 135.073 52.1532 135.218V138.722C52.1532 138.861 52.1683 138.966 52.1985 139.038C52.2337 139.105 52.2915 139.151 52.3719 139.177C52.4524 139.203 52.5781 139.216 52.7491 139.216H53.3525C53.5939 139.216 53.795 139.128 53.9559 138.953C54.1169 138.778 54.225 138.536 54.2803 138.228C54.2803 138.217 54.2904 138.212 54.3105 138.212C54.3256 138.212 54.3381 138.217 54.3482 138.228C54.3633 138.233 54.3708 138.238 54.3708 138.243C54.3256 138.567 54.3029 138.907 54.3029 139.262C54.3029 139.303 54.2929 139.334 54.2728 139.355C54.2577 139.37 54.2275 139.378 54.1822 139.378H51.0218ZM53.7598 137.579C53.7598 137.353 53.7045 137.191 53.5939 137.093C53.4883 136.995 53.3098 136.946 53.0583 136.946H51.9269V136.784H53.081C53.3223 136.784 53.4933 136.743 53.5939 136.661C53.6995 136.579 53.7523 136.44 53.7523 136.244C53.7523 136.234 53.7674 136.229 53.7976 136.229C53.8277 136.229 53.8428 136.234 53.8428 136.244L53.8353 136.869C53.8353 137.018 53.8378 137.132 53.8428 137.209L53.8503 137.579C53.8503 137.59 53.8353 137.595 53.8051 137.595C53.7749 137.595 53.7598 137.59 53.7598 137.579Z" fill="#F6F3EE"/>
<path d="M56.5242 135.179C56.5242 135.025 56.5091 134.911 56.4789 134.839C56.4488 134.767 56.3884 134.718 56.2979 134.693C56.2124 134.662 56.0741 134.646 55.883 134.646C55.873 134.646 55.868 134.631 55.868 134.6C55.868 134.569 55.873 134.554 55.883 134.554L56.2602 134.561C56.4714 134.572 56.6398 134.577 56.7656 134.577C56.9114 134.577 57.0899 134.572 57.3011 134.561L57.6556 134.554C57.6707 134.554 57.6782 134.569 57.6782 134.6C57.6782 134.631 57.6707 134.646 57.6556 134.646C57.4696 134.646 57.3313 134.662 57.2408 134.693C57.1553 134.724 57.0949 134.778 57.0597 134.855C57.0296 134.927 57.0145 135.04 57.0145 135.194V138.753C57.0145 138.912 57.0296 139.028 57.0597 139.1C57.0899 139.172 57.1477 139.221 57.2332 139.247C57.3237 139.272 57.4645 139.285 57.6556 139.285C57.6707 139.285 57.6782 139.301 57.6782 139.331C57.6782 139.362 57.6707 139.378 57.6556 139.378C57.5048 139.378 57.3841 139.375 57.2936 139.37L56.7656 139.362L56.2526 139.37C56.1621 139.375 56.0364 139.378 55.8755 139.378C55.8654 139.378 55.8604 139.362 55.8604 139.331C55.8604 139.301 55.8654 139.285 55.8755 139.285C56.0666 139.285 56.2049 139.272 56.2904 139.247C56.3809 139.221 56.4412 139.172 56.4714 139.1C56.5066 139.023 56.5242 138.907 56.5242 138.753V135.179ZM57.2181 136.715L57.5953 136.406L58.6965 137.842C59.0636 138.331 59.3427 138.675 59.5338 138.876C59.7299 139.077 59.8808 139.195 59.9864 139.231C60.092 139.267 60.2453 139.285 60.4465 139.285C60.4616 139.285 60.4691 139.301 60.4691 139.331C60.4691 139.362 60.4616 139.378 60.4465 139.378H59.6017C59.5615 139.378 59.4885 139.378 59.3829 139.378C59.2824 139.383 59.1391 139.254 58.953 138.992C58.7669 138.724 58.5884 138.48 58.4175 138.259L57.2181 136.715ZM58.6287 135.179C58.7946 135.009 58.8776 134.883 58.8776 134.801C58.8776 134.698 58.7292 134.646 58.4325 134.646C58.4225 134.646 58.4175 134.631 58.4175 134.6C58.4175 134.569 58.4225 134.554 58.4325 134.554L58.7569 134.561C58.958 134.572 59.1416 134.577 59.3075 134.577C59.4735 134.577 59.6469 134.572 59.828 134.561L60.1071 134.554C60.1221 134.554 60.1297 134.569 60.1297 134.6C60.1297 134.631 60.1221 134.646 60.1071 134.646C59.9009 134.646 59.6821 134.693 59.4508 134.785C59.2195 134.878 59.0033 135.025 58.8021 135.225L56.8712 137.163H56.6826L58.6287 135.179Z" fill="#F6F3EE"/>
<path d="M61.6035 137.101H63.6024L63.6552 137.255H61.5281L61.6035 137.101ZM65.3372 139.285C65.3573 139.285 65.3674 139.301 65.3674 139.331C65.3674 139.362 65.3573 139.378 65.3372 139.378C65.2417 139.378 65.0933 139.373 64.8922 139.362C64.6911 139.352 64.5452 139.347 64.4547 139.347C64.3441 139.347 64.2033 139.352 64.0323 139.362C63.8714 139.373 63.7482 139.378 63.6627 139.378C63.6426 139.378 63.6325 139.362 63.6325 139.331C63.6325 139.301 63.6426 139.285 63.6627 139.285C63.8538 139.285 63.9896 139.267 64.07 139.231C64.1555 139.195 64.1983 139.131 64.1983 139.038C64.1983 138.961 64.1681 138.853 64.1077 138.714L62.4332 135.094L62.6218 134.855L61.1585 138.398C61.0881 138.572 61.0529 138.717 61.0529 138.83C61.0529 139.133 61.2993 139.285 61.7921 139.285C61.8172 139.285 61.8298 139.301 61.8298 139.331C61.8298 139.362 61.8172 139.378 61.7921 139.378C61.7016 139.378 61.5708 139.373 61.3998 139.362C61.2088 139.352 61.0428 139.347 60.902 139.347C60.7713 139.347 60.6204 139.352 60.4494 139.362C60.2986 139.373 60.1729 139.378 60.0723 139.378C60.0471 139.378 60.0346 139.362 60.0346 139.331C60.0346 139.301 60.0471 139.285 60.0723 139.285C60.2131 139.285 60.3313 139.259 60.4268 139.208C60.5274 139.151 60.6204 139.056 60.7059 138.922C60.7964 138.783 60.8945 138.585 61.0001 138.328L62.5916 134.484C62.6017 134.469 62.6193 134.461 62.6444 134.461C62.6696 134.461 62.6846 134.469 62.6897 134.484L64.4698 138.32C64.6408 138.701 64.7866 138.958 64.9073 139.092C65.028 139.221 65.1713 139.285 65.3372 139.285Z" fill="#F6F3EE"/>
<path d="M66.0021 135.457C66.0021 135.657 66.0499 135.832 66.1454 135.982C66.241 136.131 66.3566 136.257 66.4924 136.36C66.6282 136.458 66.8193 136.584 67.0657 136.738C67.3272 136.898 67.5308 137.031 67.6766 137.139C67.8225 137.247 67.9457 137.386 68.0462 137.556C68.1518 137.721 68.2046 137.919 68.2046 138.151C68.2046 138.398 68.1443 138.621 68.0236 138.822C67.9029 139.023 67.7244 139.182 67.4881 139.301C67.2568 139.414 66.9777 139.47 66.6508 139.47C66.2636 139.47 65.9091 139.38 65.5873 139.2C65.5621 139.185 65.5445 139.167 65.5345 139.146C65.5294 139.126 65.5244 139.095 65.5194 139.054L65.4213 138.004C65.4163 137.983 65.4263 137.97 65.4515 137.965C65.4817 137.96 65.4993 137.968 65.5043 137.988C65.5797 138.354 65.7281 138.673 65.9493 138.946C66.1706 139.213 66.4622 139.347 66.8243 139.347C67.0757 139.347 67.2869 139.277 67.4579 139.138C67.6339 138.994 67.7219 138.768 67.7219 138.459C67.7219 138.228 67.6716 138.027 67.571 137.857C67.4705 137.687 67.3473 137.548 67.2014 137.44C67.0606 137.327 66.867 137.196 66.6206 137.047C66.3793 136.898 66.1882 136.769 66.0474 136.661C65.9116 136.553 65.7959 136.416 65.7004 136.252C65.6049 136.087 65.5571 135.894 65.5571 135.673C65.5571 135.416 65.6225 135.197 65.7532 135.017C65.889 134.832 66.0625 134.695 66.2737 134.608C66.4899 134.515 66.7187 134.469 66.9601 134.469C67.2568 134.469 67.5509 134.531 67.8426 134.654C67.918 134.68 67.9557 134.724 67.9557 134.785L68.0085 135.665C68.0085 135.691 67.9934 135.704 67.9633 135.704C67.9381 135.704 67.923 135.693 67.918 135.673C67.8828 135.405 67.7772 135.158 67.6012 134.932C67.4252 134.7 67.1713 134.585 66.8394 134.585C66.5578 134.585 66.3466 134.669 66.2058 134.839C66.07 135.004 66.0021 135.21 66.0021 135.457Z" fill="#F6F3EE"/>
<path d="M72.468 135.194C72.468 135.04 72.4504 134.927 72.4152 134.855C72.385 134.778 72.3247 134.724 72.2341 134.693C72.1436 134.662 72.0003 134.646 71.8042 134.646C71.7891 134.646 71.7816 134.631 71.7816 134.6C71.7816 134.569 71.7891 134.554 71.8042 134.554L72.1662 134.561C72.3875 134.572 72.5711 134.577 72.7169 134.577C72.8527 134.577 73.0261 134.572 73.2373 134.561L73.6069 134.554C73.622 134.554 73.6296 134.569 73.6296 134.6C73.6296 134.631 73.622 134.646 73.6069 134.646C73.4159 134.646 73.2751 134.662 73.1845 134.693C73.094 134.718 73.0312 134.767 72.996 134.839C72.9658 134.911 72.9507 135.025 72.9507 135.179V138.753C72.9507 138.907 72.9658 139.023 72.996 139.1C73.0312 139.172 73.094 139.221 73.1845 139.247C73.2751 139.272 73.4159 139.285 73.6069 139.285C73.622 139.285 73.6296 139.301 73.6296 139.331C73.6296 139.362 73.622 139.378 73.6069 139.378C73.4511 139.378 73.3279 139.375 73.2373 139.37L72.7169 139.362L72.1662 139.37C72.0757 139.375 71.9551 139.378 71.8042 139.378C71.7891 139.378 71.7816 139.362 71.7816 139.331C71.7816 139.301 71.7891 139.285 71.8042 139.285C72.0003 139.285 72.1436 139.272 72.2341 139.247C72.3247 139.221 72.385 139.172 72.4152 139.1C72.4504 139.023 72.468 138.907 72.468 138.753V135.194ZM69.3075 136.784H72.6792V136.946H69.3075V136.784ZM69.0888 135.179C69.0888 135.025 69.0712 134.911 69.0359 134.839C69.0058 134.767 68.9454 134.718 68.8549 134.693C68.7644 134.662 68.6236 134.646 68.4325 134.646C68.4225 134.646 68.4174 134.631 68.4174 134.6C68.4174 134.569 68.4225 134.554 68.4325 134.554L68.8172 134.561C69.0284 134.572 69.1969 134.577 69.3226 134.577C69.4684 134.577 69.652 134.572 69.8732 134.561L70.2353 134.554C70.2453 134.554 70.2504 134.569 70.2504 134.6C70.2504 134.631 70.2453 134.646 70.2353 134.646C70.0442 134.646 69.9009 134.662 69.8053 134.693C69.7148 134.724 69.652 134.778 69.6168 134.855C69.5866 134.927 69.5715 135.04 69.5715 135.194V138.753C69.5715 138.907 69.5866 139.023 69.6168 139.1C69.652 139.172 69.7148 139.221 69.8053 139.247C69.8958 139.272 70.0392 139.285 70.2353 139.285C70.2453 139.285 70.2504 139.301 70.2504 139.331C70.2504 139.362 70.2453 139.378 70.2353 139.378C70.0794 139.378 69.9562 139.375 69.8657 139.37L69.3226 139.362L68.8021 139.37C68.7116 139.375 68.5859 139.378 68.425 139.378C68.4149 139.378 68.4099 139.362 68.4099 139.331C68.4099 139.301 68.4149 139.285 68.425 139.285C68.6161 139.285 68.7569 139.272 68.8474 139.247C68.9429 139.221 69.0058 139.172 69.0359 139.1C69.0712 139.023 69.0888 138.907 69.0888 138.753V135.179Z" fill="#F6F3EE"/>
<path d="M74.4049 134.731L74.5859 134.747L74.5105 138.536C74.5055 138.809 74.5507 139.002 74.6463 139.115C74.7418 139.229 74.9103 139.285 75.1516 139.285C75.1617 139.285 75.1667 139.301 75.1667 139.331C75.1667 139.362 75.1617 139.378 75.1516 139.378C75.0108 139.378 74.9027 139.375 74.8273 139.37L74.42 139.362L74.0278 139.37C73.9574 139.375 73.8568 139.378 73.726 139.378C73.716 139.378 73.711 139.362 73.711 139.331C73.711 139.301 73.716 139.285 73.726 139.285C73.9372 139.285 74.0881 139.229 74.1786 139.115C74.2742 138.997 74.3244 138.804 74.3295 138.536L74.4049 134.731ZM79.5567 139.285C79.5718 139.285 79.5793 139.301 79.5793 139.331C79.5793 139.362 79.5718 139.378 79.5567 139.378C79.4008 139.378 79.2776 139.375 79.1871 139.37L78.6666 139.362L78.1839 139.37C78.1034 139.375 77.9903 139.378 77.8445 139.378C77.8344 139.378 77.8294 139.362 77.8294 139.331C77.8294 139.301 77.8344 139.285 77.8445 139.285C78.0154 139.285 78.1411 139.272 78.2216 139.247C78.3071 139.216 78.3624 139.164 78.3875 139.092C78.4177 139.02 78.4278 138.907 78.4177 138.753L78.2744 135.025L78.5233 134.669L76.5622 139.324C76.5521 139.344 76.532 139.355 76.5018 139.355C76.4767 139.355 76.4541 139.344 76.4339 139.324L74.5407 135.194C74.4552 135.004 74.3496 134.865 74.2239 134.778C74.1032 134.69 73.9548 134.646 73.7788 134.646C73.7688 134.646 73.7638 134.631 73.7638 134.6C73.7638 134.569 73.7688 134.554 73.7788 134.554L74.0579 134.561C74.1082 134.567 74.1786 134.569 74.2691 134.569C74.3596 134.569 74.4351 134.567 74.4954 134.561C74.5608 134.556 74.6111 134.554 74.6463 134.554C74.7116 134.554 74.7644 134.579 74.8047 134.631C74.8499 134.677 74.9128 134.785 74.9932 134.955L76.713 138.66L76.4792 139.061L78.3197 134.747C78.375 134.618 78.4504 134.554 78.5459 134.554C78.5711 134.554 78.6063 134.556 78.6515 134.561C78.7018 134.567 78.7672 134.569 78.8477 134.569L79.2022 134.561C79.2575 134.556 79.3405 134.554 79.4511 134.554C79.4612 134.554 79.4662 134.569 79.4662 134.6C79.4662 134.631 79.4612 134.646 79.4511 134.646C79.1946 134.646 79.0111 134.685 78.9005 134.762C78.7949 134.834 78.7471 134.973 78.7571 135.179L78.908 138.753C78.913 138.912 78.9306 139.028 78.9608 139.1C78.996 139.172 79.0563 139.221 79.1418 139.247C79.2273 139.272 79.3656 139.285 79.5567 139.285Z" fill="#F6F3EE"/>
<path d="M80.7783 138.753C80.7783 138.912 80.7934 139.028 80.8236 139.1C80.8538 139.172 80.9116 139.221 80.9971 139.247C81.0876 139.272 81.2284 139.285 81.4195 139.285C81.4346 139.285 81.4421 139.301 81.4421 139.331C81.4421 139.362 81.4346 139.378 81.4195 139.378C81.2686 139.378 81.1479 139.375 81.0574 139.37L80.5219 139.362L80.0014 139.37C79.9109 139.375 79.7877 139.378 79.6318 139.378C79.6167 139.378 79.6092 139.362 79.6092 139.331C79.6092 139.301 79.6167 139.285 79.6318 139.285C79.8229 139.285 79.9612 139.272 80.0467 139.247C80.1372 139.221 80.1975 139.172 80.2277 139.1C80.2629 139.023 80.2805 138.907 80.2805 138.753V135.179C80.2805 135.025 80.2629 134.911 80.2277 134.839C80.1975 134.767 80.1372 134.718 80.0467 134.693C79.9612 134.662 79.8229 134.646 79.6318 134.646C79.6167 134.646 79.6092 134.631 79.6092 134.6C79.6092 134.569 79.6167 134.554 79.6318 134.554L80.0014 134.561C80.2126 134.572 80.3861 134.577 80.5219 134.577C80.6727 134.577 80.8538 134.572 81.065 134.561L81.4195 134.554C81.4346 134.554 81.4421 134.569 81.4421 134.6C81.4421 134.631 81.4346 134.646 81.4195 134.646C81.2334 134.646 81.0951 134.662 81.0046 134.693C80.9141 134.724 80.8538 134.778 80.8236 134.855C80.7934 134.927 80.7783 135.04 80.7783 135.194V138.753Z" fill="#F6F3EE"/>
<path d="M85.508 139.378C85.3823 139.378 85.1409 139.159 84.7839 138.722C84.4319 138.279 84.0069 137.672 83.5091 136.9L83.9315 136.769C84.369 137.412 84.7336 137.914 85.0252 138.274C85.3219 138.629 85.5834 138.886 85.8097 139.046C86.036 139.205 86.2572 139.285 86.4735 139.285C86.4885 139.285 86.4961 139.301 86.4961 139.331C86.4961 139.362 86.4885 139.378 86.4735 139.378H85.508ZM83.6072 134.531C84.0044 134.531 84.3112 134.623 84.5274 134.808C84.7436 134.994 84.8517 135.241 84.8517 135.549C84.8517 135.822 84.7738 136.072 84.6179 136.298C84.462 136.519 84.2508 136.697 83.9843 136.831C83.7228 136.959 83.4412 137.024 83.1395 137.024C83.1093 137.024 82.9962 137.016 82.8001 137V138.753C82.8001 138.912 82.8152 139.028 82.8453 139.1C82.8755 139.172 82.9333 139.221 83.0188 139.247C83.1093 139.272 83.2501 139.285 83.4412 139.285C83.4563 139.285 83.4639 139.301 83.4639 139.331C83.4639 139.362 83.4563 139.378 83.4412 139.378C83.2853 139.378 83.1621 139.375 83.0716 139.37L82.5512 139.362L82.0382 139.37C81.9477 139.375 81.8195 139.378 81.6536 139.378C81.6435 139.378 81.6385 139.362 81.6385 139.331C81.6385 139.301 81.6435 139.285 81.6536 139.285C81.8446 139.285 81.9854 139.272 82.076 139.247C82.1665 139.216 82.2293 139.164 82.2645 139.092C82.2997 139.02 82.3173 138.907 82.3173 138.753V135.179C82.3173 135.025 82.2997 134.911 82.2645 134.839C82.2344 134.767 82.174 134.718 82.0835 134.693C81.998 134.662 81.8597 134.646 81.6686 134.646C81.6536 134.646 81.646 134.631 81.646 134.6C81.646 134.569 81.6536 134.554 81.6686 134.554L82.0382 134.561C82.2494 134.572 82.4204 134.577 82.5512 134.577C82.6618 134.577 82.7649 134.574 82.8604 134.569C82.956 134.564 83.0364 134.559 83.1018 134.554C83.2929 134.538 83.4613 134.531 83.6072 134.531ZM84.3388 135.773C84.3388 135.372 84.2508 135.084 84.0748 134.909C83.9039 134.734 83.6524 134.646 83.3205 134.646C83.1244 134.646 82.9886 134.682 82.9132 134.754C82.8378 134.826 82.8001 134.973 82.8001 135.194V136.815C82.9208 136.836 83.0691 136.846 83.2451 136.846C83.6373 136.846 83.9164 136.759 84.0824 136.584C84.2533 136.409 84.3388 136.139 84.3388 135.773Z" fill="#F6F3EE"/>
</svg>
