<svg width="38" height="52" viewBox="0 0 38 52" fill="none" xmlns="http://www.w3.org/2000/svg">
<path d="M7.15351 11.4391C6.95835 10.8794 6.38672 9.99811 6.38672 9.12871C6.38672 8.10451 6.40641 7.13987 6.40641 6.59204C7.04951 6.59204 8.17637 6.59205 9.56649 6.59204C10.1977 6.59204 10.8646 7.05652 11.3291 7.21134" stroke="#0E1822" stroke-width="2"/>
<path d="M25.8092 7.16828C26.3689 6.97312 27.2502 6.40149 28.1196 6.40149C29.1438 6.40149 30.1084 6.42118 30.6562 6.42118C30.6562 7.06428 30.6562 8.19114 30.6562 9.58126C30.6563 10.2124 30.1918 10.8794 30.0369 11.3438" stroke="#0E1822" stroke-width="2"/>
<path d="M11.3432 30.1797C10.7835 30.3749 9.90216 30.9465 9.03276 30.9465C8.00856 30.9465 7.04392 30.9268 6.49609 30.9268C6.4961 30.2837 6.49611 29.1569 6.49609 27.7668C6.49609 27.1356 6.96057 26.4687 7.1154 26.0042" stroke="#0E1822" stroke-width="2"/>
<path d="M5.44411 21.8937C4.89839 21.6355 3.8444 21.4237 3.22007 20.7994C2.48457 20.0639 1.80635 19.3567 1.41294 18.9633C1.88671 18.4895 2.71686 17.6594 3.74094 16.6353C4.20592 16.1703 5.03079 16.0125 5.48413 15.7816" stroke="#0E1822" stroke-width="2"/>
<path d="M15.5813 5.56791C15.8395 5.02218 16.1517 3.84562 16.776 3.22129C17.5115 2.48579 18.2188 1.80757 18.6122 1.41416C19.0859 1.88793 19.9161 2.71808 20.9402 3.74216C21.4051 4.20714 21.5629 5.03201 21.7939 5.48535" stroke="#0E1822" stroke-width="2"/>
<path d="M15.5266 31.9037C15.7848 32.4494 16.097 33.6259 16.7213 34.2503C17.4568 34.9858 18.1641 35.664 18.5575 36.0574C19.0312 35.5836 19.8614 34.7535 20.8855 33.7294C21.3505 33.2644 21.5082 32.4396 21.7392 31.9862" stroke="#0E1822" stroke-width="2"/>
<path d="M31.8645 21.8937C32.4102 21.6355 33.4642 21.4237 34.0885 20.7994C34.824 20.0639 35.5022 19.3567 35.8956 18.9633C35.4219 18.4895 34.5917 17.6594 33.5677 16.6353C33.1027 16.1703 32.2778 16.0125 31.8245 15.7816" stroke="#0E1822" stroke-width="2"/>
<path d="M25.8834 30.1797C26.4431 30.3749 27.3244 30.9465 28.1938 30.9465C29.218 30.9465 30.1826 30.9268 30.7305 30.9268C30.7305 30.2837 30.7305 29.1569 30.7305 27.7668C30.7305 27.1356 30.266 26.4687 30.1112 26.0042" stroke="#0E1822" stroke-width="2"/>
<path d="M10.9727 18.7395C11.3657 19.073 12.2851 19.6395 13.0568 19.7348C14.0214 19.8539 14.8313 19.6914 15.915 19.1198C16.7817 18.6626 17.4866 18.7106 17.7131 18.6911M17.7848 18.691H17.7133C17.7132 18.691 17.7132 18.6911 17.7131 18.6911M17.7131 18.6911H17.7729M17.7131 18.6911H17.7014C17.4513 18.663 16.7701 18.7196 15.9031 18.2623C14.8194 17.6907 14.0929 17.6507 13.1282 17.7698C12.3565 17.865 11.318 18.3057 10.9846 18.7225M16.7129 18.6911C15.3223 18.6982 14.4236 18.6967 13.033 18.7038" stroke="#0E1822" stroke-width="0.4" stroke-linecap="round"/>
<path d="M12.9141 24.4245C12.9562 23.9108 13.3031 22.7217 13.7814 22.1087C14.3793 21.3423 15.0669 20.8846 16.2374 20.5225C17.1735 20.2329 17.638 19.7006 17.812 19.5542M17.8627 19.5035L17.8122 19.5541C17.8121 19.5541 17.812 19.5542 17.812 19.5542M17.812 19.5542L17.8542 19.5119M17.812 19.5542L17.8037 19.5625C17.6467 19.7592 17.125 20.2008 16.8353 21.1372C16.4732 22.3078 15.9878 22.8497 15.2215 23.4476C14.6084 23.926 13.4924 24.4834 12.9619 24.4245M14.5339 22.8602L17.142 20.2401" stroke="#0E1822" stroke-width="0.4" stroke-linecap="round"/>
<path d="M26.3343 18.7106C25.9413 19.0441 24.8552 19.6395 24.0835 19.7348C23.1188 19.8539 22.309 19.6914 21.2252 19.1198C20.3585 18.6626 19.6537 18.7106 19.4271 18.6911M19.3555 18.691H19.4269C19.427 18.691 19.4271 18.6911 19.4271 18.6911M19.4271 18.6911H19.3674M19.4271 18.6911H19.4388C19.6889 18.663 20.3701 18.7196 21.2371 18.2623C22.3209 17.6907 23.0473 17.6507 24.012 17.7698C24.7837 17.865 26.0008 18.2576 26.3343 18.6744M24.1073 18.6744C24.1073 18.6744 21.7822 18.6839 20.3916 18.6911" stroke="#0E1822" stroke-width="0.4" stroke-linecap="round"/>
<path d="M24.2334 24.3781C23.7198 24.336 22.5307 23.989 21.9176 23.5107C21.1513 22.9128 20.6936 22.2253 20.3315 21.0547C20.0419 20.1186 19.5095 19.6541 19.3632 19.4801M19.3125 19.4294L19.363 19.48C19.3631 19.48 19.3631 19.4801 19.3632 19.4801M19.3632 19.4801L19.3209 19.4379M19.3632 19.4801L19.3714 19.4884C19.5681 19.6454 20.0098 20.1671 20.9462 20.4568C22.1167 20.8189 22.6587 21.3043 23.2566 22.0707C23.7349 22.6837 24.312 23.7944 24.2531 24.325M22.6884 22.7752L20.0491 20.1554" stroke="#0E1822" stroke-width="0.4" stroke-linecap="round"/>
<path d="M18.6312 26.4805C18.2977 26.0875 17.7022 25.0014 17.607 24.2297C17.4879 23.265 17.6503 22.4552 18.222 21.3715C18.6792 20.5047 18.6312 19.7999 18.6507 19.5734M18.6507 19.5017V19.5732C18.6507 19.5732 18.6507 19.5733 18.6507 19.5734M18.6507 19.5734V19.5136M18.6507 19.5734V19.5851C18.6788 19.8352 18.6221 20.5164 19.0794 21.3834C19.6511 22.4671 19.6911 23.1936 19.572 24.1582C19.4767 24.93 19.0828 26.1233 18.666 26.4567M18.6347 24.6942L18.6347 20.5737" stroke="#0E1822" stroke-width="0.4" stroke-linecap="round"/>
<path d="M12.9141 13.0588C12.9562 13.5725 13.303 14.7627 13.7813 15.3758C14.3792 16.1421 15.0667 16.5998 16.2373 16.9619C17.1734 17.2515 17.6379 17.7839 17.8118 17.9302M17.8625 17.9809L17.812 17.9304C17.812 17.9303 17.8119 17.9303 17.8118 17.9302M17.8118 17.9302L17.8541 17.9725M17.8118 17.9302L17.8036 17.922C17.6466 17.7253 17.1248 17.2836 16.8351 16.3472C16.473 15.1767 15.9876 14.6347 15.2213 14.0368C14.6082 13.5585 13.4738 12.9874 12.9379 13.0588M14.4623 14.5713L17.0823 17.2033" stroke="#0E1822" stroke-width="0.4" stroke-linecap="round"/>
<path d="M24.0987 13.2017C23.585 13.2438 22.396 13.5907 21.7829 14.069C21.0166 14.6669 20.6936 15.259 20.3315 16.4296C20.0419 17.3657 19.5095 17.8302 19.3632 18.0042M19.3125 18.0549L19.363 18.0043C19.3631 18.0043 19.3631 18.0042 19.3632 18.0042M19.3632 18.0042L19.3209 18.0464M19.3632 18.0042L19.3714 17.9959C19.5681 17.8389 20.0098 17.3171 20.9462 17.0275C22.1167 16.6654 22.6587 16.1799 23.2566 15.4136C23.7349 14.8006 24.1577 13.7547 24.0987 13.2241M19.9895 17.3818L22.6147 14.7141" stroke="#0E1822" stroke-width="0.4" stroke-linecap="round"/>
<path d="M18.6312 10.4983C18.2977 10.8913 17.7022 11.9774 17.607 12.7491C17.4879 13.7138 17.6503 14.5236 18.222 15.6074C18.6792 16.4741 18.6312 17.1789 18.6507 17.4055M18.6507 17.5843V17.4057L18.6507 17.4055M18.6507 17.4055V17.4652M18.6507 17.4055V17.3938C18.6788 17.1437 18.6221 16.4625 19.0794 15.5955C19.6511 14.5117 19.6911 13.7853 19.572 12.8206C19.4767 12.0489 19.0837 10.8318 18.6669 10.4983M18.6507 16.4648L18.6073 12.7374" stroke="#0E1822" stroke-width="0.4" stroke-linecap="round"/>
<path d="M16.8682 14.7261C16.5983 13.7932 15.7454 11.5458 14.1648 11.2605C12.5809 10.9747 12.5928 10.939 12.4618 10.939C12.434 10.3951 12.4213 9.11449 12.5928 8.43804C12.7643 7.7616 13.1724 6.79059 13.355 6.38965C13.8711 6.58417 15.0842 7.08039 15.8083 7.50912C16.5324 7.93785 17.1183 8.60874 17.3208 8.8906C16.8407 9.34315 15.8969 10.5174 15.9631 11.594C16.0294 12.6706 16.5941 14.1307 16.8682 14.7261Z" stroke="#0E1822" stroke-width="0.4"/>
<path d="M20.2607 14.738C20.5306 13.8051 21.3835 11.5576 22.9641 11.2724C24.548 10.9866 24.5361 10.9508 24.6671 10.9508C24.6949 10.407 24.7076 9.12633 24.5361 8.44989C24.3646 7.77344 23.9565 6.80243 23.7739 6.40149C23.2578 6.59601 22.0447 7.09223 21.3206 7.52096C20.5965 7.9497 20.0106 8.62058 19.8081 8.90244C20.2882 9.35499 21.232 10.5292 21.1658 11.6058C21.0995 12.6824 20.5348 14.1425 20.2607 14.738Z" stroke="#0E1822" stroke-width="0.4"/>
<path d="M16.8722 22.7054C16.6022 23.6383 15.7493 25.8858 14.1687 26.171C12.5848 26.4568 12.5967 26.4925 12.4657 26.4925C12.4379 27.0364 12.4252 28.317 12.5967 28.9935C12.7682 29.6699 13.1763 30.6409 13.3589 31.0419C13.875 30.8474 15.0882 30.3511 15.8122 29.9224C16.5363 29.4937 17.1223 28.8228 17.3247 28.5409C16.8446 28.0884 15.9008 26.9141 15.9671 25.8375C16.0333 24.7609 16.598 23.3008 16.8722 22.7054Z" stroke="#0E1822" stroke-width="0.4"/>
<path d="M20.2685 22.6934C20.5384 23.6263 21.3913 25.8738 22.9719 26.159C24.5558 26.4448 24.5439 26.4806 24.6749 26.4806C24.7027 27.0244 24.7154 28.3051 24.5439 28.9815C24.3724 29.658 23.9643 30.629 23.7817 31.0299C23.2656 30.8354 22.0525 30.3392 21.3284 29.9104C20.6043 29.4817 20.0184 28.8108 19.8159 28.529C20.2961 28.0764 21.2398 26.9022 21.1736 25.8256C21.1074 24.749 20.5426 23.2889 20.2685 22.6934Z" stroke="#0E1822" stroke-width="0.4"/>
<path d="M14.5474 16.9459C13.6145 16.6759 11.367 15.823 11.0818 14.2425C10.796 12.6586 10.7603 12.6705 10.7603 12.5395C10.2164 12.5117 8.93578 12.499 8.25933 12.6705C7.58289 12.8419 6.61188 13.25 6.21094 13.4327C6.40546 13.9487 6.90168 15.1619 7.33041 15.886C7.75914 16.61 8.43003 17.196 8.71189 17.3984C9.16444 16.9183 10.3387 15.9746 11.4153 16.0408C12.4919 16.107 13.952 16.6718 14.5474 16.9459Z" stroke="#0E1822" stroke-width="0.4"/>
<path d="M14.5552 20.34C13.6224 20.6099 11.3749 21.4629 11.0896 23.0434C10.8038 24.6273 10.7681 24.6154 10.7681 24.7464C10.2242 24.7742 8.94359 24.7869 8.26715 24.6154C7.5907 24.4439 6.6197 24.0358 6.21875 23.8532C6.41327 23.3372 6.90949 22.124 7.33822 21.3999C7.76696 20.6758 8.43785 20.0899 8.7197 19.8874C9.17225 20.3676 10.3465 21.3113 11.4231 21.2451C12.4997 21.1789 13.9598 20.6141 14.5552 20.34Z" stroke="#0E1822" stroke-width="0.4"/>
<path d="M22.4877 16.9459C23.4206 16.6759 25.6681 15.823 25.9533 14.2425C26.2391 12.6586 26.2749 12.6705 26.2749 12.5395C26.8187 12.5117 28.0994 12.499 28.7758 12.6705C29.4523 12.8419 30.4233 13.25 30.8242 13.4327C30.6297 13.9487 30.1335 15.1619 29.7047 15.886C29.276 16.61 28.6051 17.196 28.3233 17.3984C27.8707 16.9183 26.6965 15.9746 25.6199 16.0408C24.5433 16.107 23.0832 16.6718 22.4877 16.9459Z" stroke="#0E1822" stroke-width="0.4"/>
<path d="M22.476 20.34C23.4089 20.6099 25.6564 21.4629 25.9416 23.0434C26.2274 24.6273 26.2632 24.6154 26.2632 24.7464C26.807 24.7742 28.0877 24.7869 28.7641 24.6154C29.4406 24.4439 30.4116 24.0358 30.8125 23.8532C30.618 23.3372 30.1218 22.124 29.693 21.3999C29.2643 20.6758 28.5934 20.0899 28.3116 19.8874C27.859 20.3676 26.6847 21.3113 25.6081 21.2451C24.5315 21.1789 23.0715 20.6141 22.476 20.34Z" stroke="#0E1822" stroke-width="0.4"/>
<path d="M14.8768 12.7849C16.3499 13.4625 17.612 16.445 18.0566 17.882C18.0714 17.9297 18.0923 18.1798 18.3662 18.1321C18.5853 18.094 18.529 17.7828 18.4734 17.6319C18.1558 17.1595 17.3063 15.7669 16.9252 14.2616C16.4488 12.3799 17.1778 10.9389 18.1662 9.55744C19.1547 8.17596 17.4725 6.55648 15.963 5.72265C14.7126 5.03191 13.1857 4.55951 12.5426 4.36499C12.4116 4.96043 11.909 5.96551 11.5661 6.65148L11.566 6.65157C11.1373 7.50904 10.6847 9.56934 11.1373 10.9151C11.5898 12.2608 13.0904 11.9631 14.8768 12.7849Z" stroke="#0E1822" stroke-width="0.4"/>
<path d="M20.1786 11.8217C20.7411 13.3425 19.5246 16.3438 18.8228 17.6744C18.7996 17.7186 18.6376 17.9102 18.8649 18.0702C19.0468 18.1982 19.227 17.9382 19.2944 17.7923C19.4039 17.2337 19.7879 15.6483 20.5828 14.3144C21.5765 12.647 23.025 12.0575 24.7008 11.7796C26.3766 11.5017 26.3322 9.16707 25.8545 7.51008C25.4587 6.13743 24.799 4.80971 24.4818 4.21742C23.9682 4.54583 22.9021 4.90118 22.1745 5.14371L22.1744 5.14374C21.265 5.4469 19.3711 6.59477 18.7396 7.86636C18.108 9.13795 19.4965 9.97747 20.1786 11.8217Z" stroke="#0E1822" stroke-width="0.4"/>
<path d="M14.8427 24.6346C16.3158 23.957 17.6111 21.052 18.0557 19.6149C18.0706 19.5673 18.0915 19.3172 18.3654 19.3648C18.5845 19.4029 18.5281 19.7142 18.4725 19.865C18.155 20.3374 17.2484 21.6883 16.8673 23.1936C16.3909 25.0753 17.165 26.558 18.1535 27.9395C19.142 29.321 17.4598 30.9405 15.9503 31.7743C14.6998 32.465 13.1848 32.9374 12.5417 33.132C12.4107 32.5365 11.9082 31.5314 11.5652 30.8455L11.5652 30.8454C11.1364 29.9879 10.6506 27.8501 11.1032 26.5044C11.5558 25.1586 13.0563 25.4564 14.8427 24.6346Z" stroke="#0E1822" stroke-width="0.4"/>
<path d="M20.0732 25.6752C20.6357 24.1545 19.5242 21.1531 18.8225 19.8226C18.7993 19.7784 18.6372 19.5868 18.8646 19.4268C19.0465 19.2988 19.2267 19.5587 19.294 19.7047C19.4035 20.2633 19.7875 21.8487 20.5825 23.1826C21.5762 24.85 23.2696 25.3273 24.9454 25.6052C26.6212 25.8831 26.5769 28.2177 26.0991 29.8747C25.7033 31.2473 24.7987 32.6872 24.4815 33.2795C23.9678 32.9511 22.9017 32.5958 22.1742 32.3532L22.1741 32.3532C21.2646 32.05 19.3827 30.9132 18.7511 29.6416C18.1195 28.37 19.3911 27.5195 20.0732 25.6752Z" stroke="#0E1822" stroke-width="0.4"/>
<path d="M12.7597 14.9975C13.4373 16.4706 16.4198 17.7327 17.8569 18.1773C17.9045 18.1922 18.1546 18.213 18.107 18.4869C18.0689 18.7061 17.7576 18.6497 17.6068 18.5941C17.1344 18.2765 15.8013 17.358 14.296 16.9769C12.4143 16.5006 10.9138 17.3938 9.53229 18.3822C8.15081 19.3707 6.53133 17.6885 5.6975 16.179C5.00676 14.9286 4.53436 13.3064 4.33984 12.6633C4.93528 12.5323 5.94036 12.0298 6.62633 11.6868L6.62643 11.6867C7.48389 11.258 9.5442 10.8055 10.8899 11.258C12.2357 11.7106 11.938 13.2111 12.7597 14.9975Z" stroke="#0E1822" stroke-width="0.4"/>
<path d="M11.7947 20.1688C13.3155 20.7313 16.3169 19.6436 17.6474 18.9419C17.6916 18.9187 17.8832 18.7566 18.0432 18.984C18.1712 19.1659 17.9113 19.3461 17.7653 19.4134C17.2067 19.5229 15.6043 19.8024 14.2704 20.5974C12.603 21.591 12.0653 23.2223 11.7874 24.8981C11.5095 26.5739 9.17485 26.5296 7.51786 26.0518C6.14521 25.656 4.78275 24.9181 4.19047 24.6009C4.51888 24.0872 4.87423 23.0212 5.11676 22.2936L5.11679 22.2935C5.41995 21.384 6.5568 19.4783 7.82839 18.8467C9.09998 18.2151 9.95051 19.4867 11.7947 20.1688Z" stroke="#0E1822" stroke-width="0.4"/>
<path d="M24.3929 14.8929C23.7153 16.3659 20.8341 17.7327 19.397 18.1773C19.3494 18.1922 19.0993 18.213 19.1469 18.487C19.185 18.7061 19.4963 18.6497 19.6471 18.5941C20.1195 18.2766 21.4942 17.3581 22.9995 16.977C24.8812 16.5006 26.3401 17.2747 27.7216 18.2632C29.1031 19.2517 30.7226 17.5695 31.5564 16.06C32.2471 14.8095 32.7195 13.3064 32.9141 12.6633C32.3186 12.5323 31.3135 12.0298 30.6276 11.6868L30.6275 11.6868C29.77 11.258 27.6084 10.7008 26.2627 11.1533C24.9169 11.6059 25.2147 13.1065 24.3929 14.8929Z" stroke="#0E1822" stroke-width="0.4"/>
<path d="M25.4568 20.0974C23.936 20.6599 20.9346 19.6437 19.6041 18.942C19.5599 18.9188 19.3683 18.7567 19.2083 18.9841C19.0803 19.1659 19.3402 19.3462 19.4862 19.4135L19.5006 19.4164C20.0724 19.5284 21.6882 19.8449 23.0108 20.6332C24.6782 21.6269 25.0254 23.3534 25.3033 25.0292C25.5812 26.705 27.9158 26.6607 29.5728 26.1829C30.9455 25.7871 32.4687 24.9181 33.061 24.601C32.7326 24.0873 32.3773 23.0212 32.1347 22.2937L32.1347 22.2936C31.8316 21.3841 30.6947 19.4069 29.4231 18.7753C28.1515 18.1437 27.301 19.4153 25.4568 20.0974Z" stroke="#0E1822" stroke-width="0.4"/>
<path d="M6.5146 41.2248H7.61276C7.96772 41.2248 8.27276 41.29 8.52789 41.4206C8.78302 41.5511 8.97991 41.7412 9.11857 41.9909C9.25722 42.235 9.32655 42.5273 9.32655 42.8678C9.32655 43.1288 9.27663 43.3644 9.1768 43.5744C9.07697 43.7787 8.94386 43.9518 8.77747 44.0937C8.61108 44.2355 8.42251 44.3434 8.21175 44.4171C8.001 44.4853 7.78192 44.5108 7.55452 44.4938C7.33267 44.4767 7.11637 44.4115 6.90561 44.298V44.2128C6.90561 44.2128 6.95276 44.2213 7.04704 44.2384C7.14133 44.2497 7.26057 44.2526 7.40478 44.2469C7.55452 44.2355 7.70982 44.2043 7.87066 44.1532C8.03705 44.0965 8.18957 44 8.32823 43.8638C8.47243 43.7276 8.58058 43.5375 8.65268 43.2934C8.66932 43.231 8.68319 43.1544 8.69428 43.0636C8.70537 42.9671 8.70814 42.8735 8.7026 42.7827C8.69705 42.3911 8.59722 42.0761 8.4031 41.8377C8.20898 41.5993 7.93444 41.4802 7.57948 41.4802H6.5978C6.5978 41.4802 6.58948 41.4603 6.57284 41.4206C6.56175 41.3752 6.54788 41.3326 6.53124 41.2929C6.52015 41.2475 6.5146 41.2248 6.5146 41.2248ZM6.62276 41.2248V47.1839H6.082V41.2248H6.62276ZM6.10696 46.5624V47.1839H5.44141V47.0987C5.44141 47.0987 5.45804 47.0987 5.49132 47.0987C5.53015 47.0987 5.54956 47.0987 5.54956 47.0987C5.69376 47.0987 5.81578 47.0477 5.91561 46.9455C6.02099 46.8377 6.07645 46.71 6.082 46.5624H6.10696ZM6.10696 41.8462H6.082C6.082 41.6987 6.02931 41.5738 5.92393 41.4717C5.81855 41.3638 5.69376 41.3099 5.54956 41.3099C5.54956 41.3099 5.53292 41.3099 5.49964 41.3099C5.46636 41.3099 5.44973 41.3099 5.44973 41.3099L5.44141 41.2248H6.10696V41.8462ZM6.5978 46.5624H6.62276C6.6283 46.71 6.68099 46.8377 6.78082 46.9455C6.8862 47.0477 7.01099 47.0987 7.1552 47.0987C7.1552 47.0987 7.17183 47.0987 7.20511 47.0987C7.24394 47.0987 7.26335 47.0987 7.26335 47.0987V47.1839H6.5978V46.5624Z" fill="#0E1822"/>
<path d="M11.7295 41.1056L14.192 47.1328H13.4849L11.5631 41.9143L11.7295 41.1056ZM9.94082 46.5624C9.90199 46.6759 9.89645 46.7724 9.92418 46.8519C9.95191 46.9313 9.99628 46.9937 10.0573 47.0392C10.1238 47.0789 10.1904 47.0987 10.257 47.0987H10.3318V47.1839H8.65963V47.0987C8.65963 47.0987 8.6735 47.0987 8.70123 47.0987C8.72342 47.0987 8.73451 47.0987 8.73451 47.0987C8.86207 47.0987 8.99241 47.059 9.12552 46.9796C9.26417 46.8944 9.37787 46.7554 9.46661 46.5624H9.94082ZM11.7295 41.1056L11.8044 41.7015L9.71619 47.1583H9.21703L11.3468 41.9824C11.3468 41.9824 11.3607 41.9484 11.3884 41.8803C11.4217 41.8065 11.4577 41.7185 11.4965 41.6164C11.5409 41.5142 11.577 41.4149 11.6047 41.3184C11.638 41.2219 11.6546 41.151 11.6546 41.1056H11.7295ZM12.9025 44.8598V45.1152H10.2985V44.8598H12.9025ZM13.2769 46.5624H13.9591C14.0423 46.7554 14.1532 46.8944 14.2918 46.9796C14.4305 47.059 14.5636 47.0987 14.6912 47.0987C14.6912 47.0987 14.7023 47.0987 14.7245 47.0987C14.7466 47.0987 14.7577 47.0987 14.7577 47.0987V47.1839H12.8859V47.0987H12.9607C13.0661 47.0987 13.1604 47.0533 13.2436 46.9625C13.3268 46.8661 13.3379 46.7327 13.2769 46.5624Z" fill="#0E1822"/>
<path d="M16.3377 41.1056C16.4264 41.1056 16.5207 41.1113 16.6206 41.1226C16.7259 41.134 16.8258 41.151 16.92 41.1737C17.0199 41.1907 17.1086 41.2106 17.1863 41.2333C17.2695 41.2503 17.3332 41.2702 17.3776 41.2929V42.2378H17.3027C17.3027 41.9654 17.2112 41.7526 17.0282 41.5993C16.8452 41.4404 16.6233 41.361 16.3626 41.361C16.0576 41.361 15.8108 41.4603 15.6222 41.6589C15.4337 41.8519 15.3394 42.0789 15.3394 42.34C15.3394 42.4478 15.3616 42.5755 15.4059 42.7231C15.4558 42.8649 15.5446 42.9983 15.6721 43.1232L17.3111 44.6725C17.4774 44.8314 17.5884 45.0017 17.6438 45.1833C17.6993 45.3649 17.727 45.5409 17.727 45.7111C17.727 46.1822 17.5856 46.5653 17.3027 46.8604C17.0254 47.1555 16.6483 47.3031 16.1713 47.3031C16.0382 47.3031 15.8801 47.2889 15.6971 47.2605C15.5196 47.2321 15.3449 47.1839 15.173 47.1158C15.0066 47.042 14.8679 46.9483 14.757 46.8348C14.7404 46.744 14.7321 46.6305 14.7321 46.4943C14.7321 46.3581 14.7431 46.2162 14.7653 46.0687C14.7875 45.9154 14.818 45.7764 14.8568 45.6515H14.9317C14.904 45.941 14.94 46.1935 15.0399 46.4092C15.1397 46.6249 15.2839 46.7894 15.4725 46.9029C15.6666 47.0108 15.8857 47.059 16.1297 47.0477C16.4348 47.0306 16.6954 46.9228 16.9117 46.7242C17.1336 46.5199 17.2445 46.2474 17.2445 45.9069C17.2445 45.7423 17.2168 45.5948 17.1613 45.4642C17.1058 45.328 17.0254 45.2117 16.92 45.1152L15.3227 43.5999C15.1563 43.441 15.0399 43.2679 14.9733 43.0806C14.9068 42.8876 14.8735 42.7089 14.8735 42.5443C14.8735 42.3059 14.9289 42.0761 15.0399 41.8547C15.1508 41.6334 15.3144 41.4546 15.5307 41.3184C15.7526 41.1765 16.0216 41.1056 16.3377 41.1056ZM17.3776 41.1907V41.3695H16.7453V41.1907H17.3776Z" fill="#0E1822"/>
<path d="M23.4059 41.2248V47.1839H22.8651V41.2248H23.4059ZM19.4625 41.2248V47.1839H18.9218V41.2248H19.4625ZM22.94 44.1107V44.3661H19.3793V44.1107H22.94ZM18.9467 46.5624V47.1839H18.2812V47.0987C18.2812 47.0987 18.2978 47.0987 18.3311 47.0987C18.3699 47.0987 18.3893 47.0987 18.3893 47.0987C18.5335 47.0987 18.6555 47.0477 18.7554 46.9455C18.8608 46.8377 18.9162 46.71 18.9218 46.5624H18.9467ZM18.9467 41.8462H18.9218C18.9162 41.6987 18.8608 41.5738 18.7554 41.4717C18.6555 41.3638 18.5335 41.3099 18.3893 41.3099C18.3893 41.3099 18.3699 41.3099 18.3311 41.3099C18.2978 41.3099 18.2812 41.3099 18.2812 41.3099V41.2248H18.9467V41.8462ZM19.4376 46.5624H19.4625C19.4681 46.71 19.5208 46.8377 19.6206 46.9455C19.726 47.0477 19.8508 47.0987 19.995 47.0987C19.995 47.0987 20.0116 47.0987 20.0449 47.0987C20.0782 47.0987 20.0976 47.0987 20.1031 47.0987V47.1839H19.4376V46.5624ZM19.4376 41.8462V41.2248H20.1031V41.3099C20.0976 41.3099 20.0782 41.3099 20.0449 41.3099C20.0116 41.3099 19.995 41.3099 19.995 41.3099C19.8508 41.3099 19.726 41.3638 19.6206 41.4717C19.5208 41.5738 19.4681 41.6987 19.4625 41.8462H19.4376ZM22.8901 46.5624V47.1839H22.2246V47.0987C22.2301 47.0987 22.2495 47.0987 22.2828 47.0987C22.3161 47.0987 22.3327 47.0987 22.3327 47.0987C22.4769 47.0987 22.6017 47.0477 22.7071 46.9455C22.8125 46.8377 22.8651 46.71 22.8651 46.5624H22.8901ZM22.8901 41.8462H22.8651C22.8651 41.6987 22.8125 41.5738 22.7071 41.4717C22.6017 41.3638 22.4769 41.3099 22.3327 41.3099C22.3327 41.3099 22.3161 41.3099 22.2828 41.3099C22.2495 41.3099 22.2301 41.3099 22.2246 41.3099V41.2248H22.8901V41.8462ZM23.3809 46.5624H23.4059C23.4114 46.71 23.4641 46.8377 23.564 46.9455C23.6693 47.0477 23.7941 47.0987 23.9383 47.0987C23.9383 47.0987 23.955 47.0987 23.9883 47.0987C24.0271 47.0987 24.0465 47.0987 24.0465 47.0987V47.1839H23.3809V46.5624ZM23.3809 41.8462V41.2248H24.0465V41.3099C24.0465 41.3099 24.0271 41.3099 23.9883 41.3099C23.955 41.3099 23.9383 41.3099 23.9383 41.3099C23.7941 41.3099 23.6693 41.3638 23.564 41.4717C23.4641 41.5738 23.4114 41.6987 23.4059 41.8462H23.3809Z" fill="#0E1822"/>
<path d="M30.2983 41.1056L30.3649 41.676L28.2767 46.4347C28.2767 46.4347 28.2545 46.483 28.2101 46.5794C28.1713 46.6759 28.1297 46.7923 28.0854 46.9285C28.041 47.059 28.0105 47.1839 27.9938 47.3031H27.9106L27.7942 46.7667L30.2983 41.1056ZM25.1819 46.5624V47.1839H24.2584V47.0987C24.264 47.0987 24.2862 47.0987 24.325 47.0987C24.3694 47.0987 24.3916 47.0987 24.3916 47.0987C24.5413 47.0987 24.6744 47.0533 24.7909 46.9625C24.9074 46.8661 24.9767 46.7327 24.9989 46.5624H25.1819ZM25.4232 46.6986C25.4232 46.7043 25.4232 46.71 25.4232 46.7157C25.4232 46.7213 25.4232 46.7298 25.4232 46.7412C25.4232 46.832 25.4537 46.9171 25.5147 46.9966C25.5812 47.0704 25.6589 47.1073 25.7476 47.1073H25.8724V47.1839H25.3649V46.6986H25.4232ZM25.6228 41.1056H25.706L25.8724 41.6079L25.3816 47.1839H24.9323L25.6228 41.1056ZM25.706 41.1056L28.102 46.4092L27.9106 47.3031L25.5479 42.059L25.706 41.1056ZM30.3732 41.1056L31.0886 47.1839H30.4397L29.9822 42.025L30.2983 41.1056H30.3732ZM30.8391 46.5624H31.0138C31.0415 46.7327 31.1136 46.8661 31.2301 46.9625C31.3465 47.0533 31.4769 47.0987 31.6211 47.0987C31.6211 47.0987 31.6433 47.0987 31.6876 47.0987C31.732 47.0987 31.7542 47.0987 31.7542 47.0987V47.1839H30.8391V46.5624ZM30.3981 46.6986H30.4564V47.1839H29.9489V47.1073H30.0737C30.168 47.1073 30.2456 47.0704 30.3066 46.9966C30.3676 46.9171 30.3981 46.832 30.3981 46.7412C30.3981 46.7298 30.3981 46.7213 30.3981 46.7157C30.3981 46.71 30.3981 46.7043 30.3981 46.6986Z" fill="#0E1822"/>
<path d="M5.88168 51.3562C5.87798 51.3562 5.87614 51.3505 5.87614 51.3392C5.87614 51.3278 5.87798 51.3221 5.88168 51.3221C5.95193 51.3221 6.00277 51.3174 6.0342 51.308C6.06748 51.2985 6.08967 51.2805 6.10076 51.254C6.1137 51.2257 6.12017 51.1831 6.12017 51.1263V49.8125C6.12017 49.7558 6.1137 49.7141 6.10076 49.6876C6.08967 49.6612 6.06748 49.6432 6.0342 49.6337C6.00277 49.6224 5.95193 49.6167 5.88168 49.6167C5.87798 49.6167 5.87614 49.611 5.87614 49.5997C5.87614 49.5883 5.87798 49.5827 5.88168 49.5827H6.99648C7.01312 49.5827 7.02143 49.5912 7.02143 49.6082L7.02698 49.9572C7.02698 49.9629 7.02143 49.9667 7.01034 49.9686C7.0011 49.9686 6.99648 49.9657 6.99648 49.9601C6.99093 49.8598 6.96135 49.7822 6.90774 49.7274C6.85412 49.6706 6.78295 49.6422 6.69421 49.6422H6.52505C6.46034 49.6422 6.41227 49.6479 6.38084 49.6593C6.34942 49.6687 6.32723 49.6858 6.31429 49.7104C6.3032 49.7349 6.29765 49.7737 6.29765 49.8267V51.115C6.29765 51.1661 6.3032 51.2049 6.31429 51.2313C6.32723 51.2559 6.34849 51.273 6.37807 51.2824C6.40765 51.2919 6.45387 51.2966 6.51673 51.2966H6.73858C6.82732 51.2966 6.90127 51.2644 6.96043 51.2001C7.01959 51.1358 7.05933 51.0469 7.07967 50.9334C7.07967 50.9296 7.08337 50.9277 7.09076 50.9277C7.09631 50.9277 7.10093 50.9296 7.10463 50.9334C7.11017 50.9353 7.11295 50.9372 7.11295 50.9391C7.09631 51.0582 7.08799 51.1831 7.08799 51.3136C7.08799 51.3288 7.08429 51.3401 7.0769 51.3477C7.07135 51.3534 7.06026 51.3562 7.04362 51.3562H5.88168ZM6.88832 50.695C6.88832 50.6118 6.86799 50.5522 6.82732 50.5162C6.78849 50.4803 6.72286 50.4623 6.63042 50.4623H6.21446V50.4027H6.63874C6.72748 50.4027 6.79034 50.3876 6.82732 50.3573C6.86614 50.3271 6.88555 50.276 6.88555 50.2041C6.88555 50.2003 6.8911 50.1984 6.90219 50.1984C6.91328 50.1984 6.91883 50.2003 6.91883 50.2041L6.91606 50.434C6.91606 50.4888 6.91698 50.5304 6.91883 50.5588L6.9216 50.695C6.9216 50.6988 6.91606 50.7007 6.90496 50.7007C6.89387 50.7007 6.88832 50.6988 6.88832 50.695Z" fill="#0E1822"/>
<path d="M8.23082 51.3562C8.22712 51.3562 8.22527 51.3505 8.22527 51.3392C8.22527 51.3278 8.22712 51.3221 8.23082 51.3221C8.28074 51.3221 8.31679 51.3184 8.33897 51.3108C8.36116 51.3032 8.37225 51.2909 8.37225 51.2739C8.37225 51.2569 8.36393 51.2361 8.34729 51.2115L7.45434 49.8239C7.40628 49.7482 7.35821 49.6952 7.31014 49.6649C7.26392 49.6328 7.20846 49.6167 7.14376 49.6167C7.14006 49.6167 7.13821 49.611 7.13821 49.5997C7.13821 49.5883 7.14006 49.5827 7.14376 49.5827L7.24913 49.5855C7.2972 49.5893 7.33233 49.5912 7.35451 49.5912C7.41737 49.5912 7.49317 49.5893 7.58191 49.5855L7.72611 49.5827C7.73166 49.5827 7.73443 49.5883 7.73443 49.5997C7.73443 49.611 7.73166 49.6167 7.72611 49.6167C7.67804 49.6167 7.64199 49.6205 7.61796 49.6281C7.59577 49.6356 7.58468 49.6489 7.58468 49.6678C7.58468 49.6829 7.593 49.7037 7.60964 49.7302L8.50813 51.1207C8.5562 51.1945 8.60519 51.2465 8.65511 51.2767C8.70687 51.307 8.77065 51.3221 8.84645 51.3221C8.85015 51.3221 8.852 51.3278 8.852 51.3392C8.852 51.3505 8.85015 51.3562 8.84645 51.3562C8.79838 51.3562 8.76049 51.3553 8.73275 51.3534L8.58023 51.3505L8.3667 51.3534C8.33342 51.3553 8.28813 51.3562 8.23082 51.3562ZM7.13266 51.3562C7.12712 51.3562 7.12434 51.3505 7.12434 51.3392C7.12434 51.3278 7.12712 51.3221 7.13266 51.3221C7.26023 51.3221 7.38594 51.2361 7.50981 51.0639L7.92855 50.4765L7.96183 50.5077L7.57082 51.0668C7.52829 51.1311 7.50703 51.1831 7.50703 51.2228C7.50703 51.289 7.56157 51.3221 7.67065 51.3221C7.67619 51.3221 7.67897 51.3278 7.67897 51.3392C7.67897 51.3505 7.67619 51.3562 7.67065 51.3562C7.61519 51.3562 7.57266 51.3553 7.54308 51.3534L7.35174 51.3505L7.23527 51.3534C7.21493 51.3553 7.18073 51.3562 7.13266 51.3562ZM7.97015 50.434L8.34452 49.892C8.39443 49.8201 8.41939 49.7614 8.41939 49.716C8.41939 49.6498 8.36763 49.6167 8.2641 49.6167C8.25855 49.6167 8.25578 49.611 8.25578 49.5997C8.25578 49.5883 8.25855 49.5827 8.2641 49.5827L8.38889 49.5855C8.45914 49.5893 8.52292 49.5912 8.58023 49.5912C8.61351 49.5912 8.65233 49.5893 8.6967 49.5855L8.79931 49.5827C8.80486 49.5827 8.80763 49.5883 8.80763 49.5997C8.80763 49.611 8.80486 49.6167 8.79931 49.6167C8.7383 49.6167 8.67452 49.6404 8.60796 49.6876C8.54141 49.7349 8.47485 49.8049 8.4083 49.8976L8.0062 50.4623L7.97015 50.434Z" fill="#0E1822"/>
<path d="M9.2606 51.115C9.2606 51.1755 9.26799 51.22 9.28278 51.2484C9.29942 51.2749 9.32993 51.2938 9.3743 51.3051C9.42052 51.3165 9.49262 51.3221 9.5906 51.3221C9.59615 51.3221 9.59892 51.3278 9.59892 51.3392C9.59892 51.3505 9.59615 51.3562 9.5906 51.3562C9.5148 51.3562 9.45564 51.3553 9.41312 51.3534L9.17186 51.3505L8.98606 51.3534C8.95093 51.3553 8.90379 51.3562 8.84463 51.3562C8.84093 51.3562 8.83909 51.3505 8.83909 51.3392C8.83909 51.3278 8.84093 51.3221 8.84463 51.3221C8.91488 51.3221 8.96572 51.3174 8.99715 51.308C9.03043 51.2985 9.05262 51.2805 9.06371 51.254C9.0748 51.2257 9.08035 51.1831 9.08035 51.1263V49.8125C9.08035 49.7558 9.0748 49.7141 9.06371 49.6876C9.05262 49.6612 9.03043 49.6432 8.99715 49.6337C8.96572 49.6224 8.91488 49.6167 8.84463 49.6167C8.84093 49.6167 8.83909 49.611 8.83909 49.5997C8.83909 49.5883 8.84093 49.5827 8.84463 49.5827L8.98329 49.5855C9.06094 49.5893 9.12287 49.5912 9.16909 49.5912C9.21531 49.5912 9.26707 49.5883 9.32438 49.5827C9.34657 49.5827 9.38169 49.5817 9.42976 49.5798C9.47783 49.576 9.51942 49.5741 9.55455 49.5741C9.72464 49.5741 9.86052 49.6129 9.9622 49.6905C10.0657 49.7681 10.1175 49.8863 10.1175 50.0452C10.1175 50.1701 10.087 50.275 10.026 50.3602C9.96682 50.4453 9.8901 50.5087 9.79581 50.5503C9.70153 50.5919 9.60447 50.6127 9.50463 50.6127C9.45102 50.6127 9.40665 50.608 9.37153 50.5985C9.36598 50.5985 9.36321 50.5938 9.36321 50.5844C9.36321 50.5787 9.36413 50.573 9.36598 50.5673C9.36968 50.5617 9.37337 50.5598 9.37707 50.5617C9.40665 50.5692 9.43993 50.573 9.4769 50.573C9.59892 50.573 9.70153 50.5323 9.78472 50.451C9.86976 50.3696 9.91228 50.2523 9.91228 50.0991C9.91228 49.9497 9.87254 49.8324 9.79304 49.7472C9.71354 49.6602 9.61186 49.6167 9.488 49.6167C9.42144 49.6167 9.37337 49.6205 9.34379 49.6281C9.31421 49.6356 9.29295 49.6536 9.28001 49.682C9.26707 49.7085 9.2606 49.7539 9.2606 49.8182V51.115Z" fill="#0E1822"/>
<path d="M10.1867 51.3562C10.183 51.3562 10.1812 51.3505 10.1812 51.3392C10.1812 51.3278 10.183 51.3221 10.1867 51.3221C10.257 51.3221 10.3078 51.3174 10.3393 51.308C10.3725 51.2985 10.3947 51.2805 10.4058 51.254C10.4188 51.2257 10.4252 51.1831 10.4252 51.1263V49.8125C10.4252 49.7558 10.4188 49.7141 10.4058 49.6876C10.3947 49.6612 10.3725 49.6432 10.3393 49.6337C10.3078 49.6224 10.257 49.6167 10.1867 49.6167C10.183 49.6167 10.1812 49.611 10.1812 49.5997C10.1812 49.5883 10.183 49.5827 10.1867 49.5827H11.3015C11.3182 49.5827 11.3265 49.5912 11.3265 49.6082L11.332 49.9572C11.332 49.9629 11.3265 49.9667 11.3154 49.9686C11.3062 49.9686 11.3015 49.9657 11.3015 49.9601C11.296 49.8598 11.2664 49.7822 11.2128 49.7274C11.1592 49.6706 11.088 49.6422 10.9993 49.6422H10.8301C10.7654 49.6422 10.7173 49.6479 10.6859 49.6593C10.6545 49.6687 10.6323 49.6858 10.6193 49.7104C10.6083 49.7349 10.6027 49.7737 10.6027 49.8267V51.115C10.6027 51.1661 10.6083 51.2049 10.6193 51.2313C10.6323 51.2559 10.6535 51.273 10.6831 51.2824C10.7127 51.2919 10.7589 51.2966 10.8218 51.2966H11.0436C11.1324 51.2966 11.2063 51.2644 11.2655 51.2001C11.3246 51.1358 11.3644 51.0469 11.3847 50.9334C11.3847 50.9296 11.3884 50.9277 11.3958 50.9277C11.4014 50.9277 11.406 50.9296 11.4097 50.9334C11.4152 50.9353 11.418 50.9372 11.418 50.9391C11.4014 51.0582 11.393 51.1831 11.393 51.3136C11.393 51.3288 11.3893 51.3401 11.382 51.3477C11.3764 51.3534 11.3653 51.3562 11.3487 51.3562H10.1867ZM11.1934 50.695C11.1934 50.6118 11.173 50.5522 11.1324 50.5162C11.0935 50.4803 11.0279 50.4623 10.9355 50.4623H10.5195V50.4027H10.9438C11.0325 50.4027 11.0954 50.3876 11.1324 50.3573C11.1712 50.3271 11.1906 50.276 11.1906 50.2041C11.1906 50.2003 11.1962 50.1984 11.2072 50.1984C11.2183 50.1984 11.2239 50.2003 11.2239 50.2041L11.2211 50.434C11.2211 50.4888 11.222 50.5304 11.2239 50.5588L11.2267 50.695C11.2267 50.6988 11.2211 50.7007 11.21 50.7007C11.1989 50.7007 11.1934 50.6988 11.1934 50.695Z" fill="#0E1822"/>
<path d="M12.9269 51.3562C12.8807 51.3562 12.7919 51.2758 12.6607 51.115C12.5313 50.9523 12.375 50.7291 12.192 50.4453L12.3473 50.3971C12.5081 50.6335 12.6422 50.818 12.7494 50.9504C12.8585 51.0809 12.9546 51.1755 13.0378 51.2342C13.121 51.2928 13.2023 51.3221 13.2818 51.3221C13.2874 51.3221 13.2902 51.3278 13.2902 51.3392C13.2902 51.3505 13.2874 51.3562 13.2818 51.3562H12.9269ZM12.2281 49.5741C12.3741 49.5741 12.4869 49.6082 12.5664 49.6763C12.6459 49.7444 12.6856 49.8352 12.6856 49.9487C12.6856 50.049 12.657 50.1407 12.5997 50.224C12.5423 50.3053 12.4647 50.3706 12.3667 50.4198C12.2706 50.4671 12.167 50.4907 12.0561 50.4907C12.045 50.4907 12.0034 50.4879 11.9313 50.4822V51.1263C11.9313 51.185 11.9369 51.2276 11.948 51.254C11.9591 51.2805 11.9803 51.2985 12.0118 51.308C12.045 51.3174 12.0968 51.3221 12.167 51.3221C12.1726 51.3221 12.1754 51.3278 12.1754 51.3392C12.1754 51.3505 12.1726 51.3562 12.167 51.3562C12.1097 51.3562 12.0644 51.3553 12.0312 51.3534L11.8398 51.3505L11.6512 51.3534C11.618 51.3553 11.5708 51.3562 11.5098 51.3562C11.5061 51.3562 11.5043 51.3505 11.5043 51.3392C11.5043 51.3278 11.5061 51.3221 11.5098 51.3221C11.5801 51.3221 11.6318 51.3174 11.6651 51.308C11.6984 51.2966 11.7215 51.2777 11.7344 51.2512C11.7474 51.2247 11.7539 51.1831 11.7539 51.1263V49.8125C11.7539 49.7558 11.7474 49.7141 11.7344 49.6876C11.7233 49.6612 11.7012 49.6432 11.6679 49.6337C11.6365 49.6224 11.5856 49.6167 11.5154 49.6167C11.5098 49.6167 11.507 49.611 11.507 49.5997C11.507 49.5883 11.5098 49.5827 11.5154 49.5827L11.6512 49.5855C11.7289 49.5893 11.7918 49.5912 11.8398 49.5912C11.8805 49.5912 11.9184 49.5902 11.9535 49.5883C11.9886 49.5864 12.0182 49.5845 12.0423 49.5827C12.1125 49.577 12.1744 49.5741 12.2281 49.5741ZM12.497 50.031C12.497 49.8834 12.4647 49.7775 12.4 49.7132C12.3371 49.6489 12.2447 49.6167 12.1227 49.6167C12.0506 49.6167 12.0007 49.63 11.9729 49.6564C11.9452 49.6829 11.9313 49.7368 11.9313 49.8182V50.4141C11.9757 50.4217 12.0302 50.4254 12.0949 50.4254C12.2391 50.4254 12.3418 50.3933 12.4028 50.329C12.4656 50.2646 12.497 50.1653 12.497 50.031Z" fill="#0E1822"/>
<path d="M13.6419 51.1263C13.6419 51.185 13.6475 51.2276 13.6586 51.254C13.6697 51.2805 13.6909 51.2985 13.7224 51.308C13.7556 51.3174 13.8074 51.3221 13.8777 51.3221C13.8832 51.3221 13.886 51.3278 13.886 51.3392C13.886 51.3505 13.8832 51.3562 13.8777 51.3562C13.8222 51.3562 13.7778 51.3553 13.7445 51.3534L13.5477 51.3505L13.3563 51.3534C13.323 51.3553 13.2777 51.3562 13.2204 51.3562C13.2149 51.3562 13.2121 51.3505 13.2121 51.3392C13.2121 51.3278 13.2149 51.3221 13.2204 51.3221C13.2907 51.3221 13.3415 51.3174 13.3729 51.308C13.4062 51.2985 13.4284 51.2805 13.4395 51.254C13.4524 51.2257 13.4589 51.1831 13.4589 51.1263V49.8125C13.4589 49.7558 13.4524 49.7141 13.4395 49.6876C13.4284 49.6612 13.4062 49.6432 13.3729 49.6337C13.3415 49.6224 13.2907 49.6167 13.2204 49.6167C13.2149 49.6167 13.2121 49.611 13.2121 49.5997C13.2121 49.5883 13.2149 49.5827 13.2204 49.5827L13.3563 49.5855C13.434 49.5893 13.4977 49.5912 13.5477 49.5912C13.6031 49.5912 13.6697 49.5893 13.7473 49.5855L13.8777 49.5827C13.8832 49.5827 13.886 49.5883 13.886 49.5997C13.886 49.611 13.8832 49.6167 13.8777 49.6167C13.8092 49.6167 13.7584 49.6224 13.7251 49.6337C13.6919 49.6451 13.6697 49.6649 13.6586 49.6933C13.6475 49.7198 13.6419 49.7614 13.6419 49.8182V51.1263Z" fill="#0E1822"/>
<path d="M13.9637 51.3562C13.96 51.3562 13.9582 51.3505 13.9582 51.3392C13.9582 51.3278 13.96 51.3221 13.9637 51.3221C14.034 51.3221 14.0848 51.3174 14.1162 51.308C14.1495 51.2985 14.1717 51.2805 14.1828 51.254C14.1957 51.2257 14.2022 51.1831 14.2022 51.1263V49.8125C14.2022 49.7558 14.1957 49.7141 14.1828 49.6876C14.1717 49.6612 14.1495 49.6432 14.1162 49.6337C14.0848 49.6224 14.034 49.6167 13.9637 49.6167C13.96 49.6167 13.9582 49.611 13.9582 49.5997C13.9582 49.5883 13.96 49.5827 13.9637 49.5827H15.0785C15.0951 49.5827 15.1035 49.5912 15.1035 49.6082L15.109 49.9572C15.109 49.9629 15.1035 49.9667 15.0924 49.9686C15.0831 49.9686 15.0785 49.9657 15.0785 49.9601C15.073 49.8598 15.0434 49.7822 14.9898 49.7274C14.9361 49.6706 14.865 49.6422 14.7762 49.6422H14.6071C14.5424 49.6422 14.4943 49.6479 14.4629 49.6593C14.4314 49.6687 14.4093 49.6858 14.3963 49.7104C14.3852 49.7349 14.3797 49.7737 14.3797 49.8267V51.115C14.3797 51.1661 14.3852 51.2049 14.3963 51.2313C14.4093 51.2559 14.4305 51.273 14.4601 51.2824C14.4897 51.2919 14.5359 51.2966 14.5988 51.2966H14.8206C14.9093 51.2966 14.9833 51.2644 15.0424 51.2001C15.1016 51.1358 15.1414 51.0469 15.1617 50.9334C15.1617 50.9296 15.1654 50.9277 15.1728 50.9277C15.1783 50.9277 15.183 50.9296 15.1867 50.9334C15.1922 50.9353 15.195 50.9372 15.195 50.9391C15.1783 51.0582 15.17 51.1831 15.17 51.3136C15.17 51.3288 15.1663 51.3401 15.1589 51.3477C15.1534 51.3534 15.1423 51.3562 15.1256 51.3562H13.9637ZM14.9703 50.695C14.9703 50.6118 14.95 50.5522 14.9093 50.5162C14.8705 50.4803 14.8049 50.4623 14.7124 50.4623H14.2965V50.4027H14.7208C14.8095 50.4027 14.8724 50.3876 14.9093 50.3573C14.9482 50.3271 14.9676 50.276 14.9676 50.2041C14.9676 50.2003 14.9731 50.1984 14.9842 50.1984C14.9953 50.1984 15.0009 50.2003 15.0009 50.2041L14.9981 50.434C14.9981 50.4888 14.999 50.5304 15.0009 50.5588L15.0036 50.695C15.0036 50.6988 14.9981 50.7007 14.987 50.7007C14.9759 50.7007 14.9703 50.6988 14.9703 50.695Z" fill="#0E1822"/>
<path d="M15.5003 49.6479L15.5641 49.6536V51.0469C15.5641 51.1453 15.5807 51.2162 15.614 51.2597C15.6491 51.3013 15.7046 51.3221 15.7804 51.3221C15.7859 51.3221 15.7887 51.3278 15.7887 51.3392C15.7887 51.3505 15.7859 51.3562 15.7804 51.3562C15.7342 51.3562 15.6991 51.3553 15.675 51.3534L15.5364 51.3505L15.3949 51.3534C15.3691 51.3553 15.3312 51.3562 15.2812 51.3562C15.2775 51.3562 15.2757 51.3505 15.2757 51.3392C15.2757 51.3278 15.2775 51.3221 15.2812 51.3221C15.3607 51.3221 15.4171 51.3013 15.4504 51.2597C15.4837 51.2162 15.5003 51.1453 15.5003 51.0469V49.6479ZM16.898 51.3902C16.898 51.394 16.8933 51.3969 16.8841 51.3988C16.8749 51.4007 16.8684 51.3997 16.8647 51.3959L15.5891 49.8153C15.5299 49.7416 15.4754 49.6905 15.4254 49.6621C15.3774 49.6318 15.3293 49.6167 15.2812 49.6167C15.2757 49.6167 15.2729 49.611 15.2729 49.5997C15.2729 49.5883 15.2757 49.5827 15.2812 49.5827L15.3838 49.5855C15.406 49.5874 15.4365 49.5883 15.4754 49.5883C15.516 49.5883 15.5493 49.5874 15.5752 49.5855C15.6011 49.5836 15.6214 49.5827 15.6362 49.5827C15.6491 49.5827 15.6593 49.5864 15.6667 49.594C15.6759 49.5997 15.6861 49.6129 15.6972 49.6337C15.7194 49.6678 15.7425 49.6999 15.7665 49.7302L16.8758 51.1235L16.898 51.3902ZM16.898 51.3902L16.8342 51.3023V49.8948C16.8342 49.7964 16.8175 49.7255 16.7843 49.682C16.7528 49.6385 16.6992 49.6167 16.6234 49.6167C16.6197 49.6167 16.6179 49.611 16.6179 49.5997C16.6179 49.5883 16.6197 49.5827 16.6234 49.5827L16.7316 49.5855C16.787 49.5893 16.8323 49.5912 16.8675 49.5912C16.9007 49.5912 16.947 49.5893 17.0061 49.5855L17.1198 49.5827C17.1254 49.5827 17.1281 49.5883 17.1281 49.5997C17.1281 49.611 17.1254 49.6167 17.1198 49.6167C17.0422 49.6167 16.9858 49.6385 16.9507 49.682C16.9155 49.7255 16.898 49.7964 16.898 49.8948V51.3902Z" fill="#0E1822"/>
<path d="M18.1558 49.5514C18.2722 49.5514 18.3702 49.56 18.4497 49.577C18.5292 49.594 18.6087 49.6233 18.6882 49.6649C18.7011 49.6725 18.7085 49.6791 18.7104 49.6848C18.7122 49.6905 18.715 49.7047 18.7187 49.7274L18.752 50.0651C18.752 50.0707 18.7464 50.0745 18.7353 50.0764C18.7261 50.0764 18.7205 50.0736 18.7187 50.0679C18.6337 49.752 18.4432 49.594 18.1474 49.594C17.9921 49.594 17.8544 49.629 17.7342 49.699C17.6159 49.769 17.5244 49.8693 17.4597 49.9998C17.395 50.1284 17.3626 50.2788 17.3626 50.451C17.3626 50.6156 17.3987 50.7669 17.4708 50.905C17.5429 51.0412 17.639 51.149 17.7592 51.2285C17.8812 51.308 18.0134 51.3477 18.1558 51.3477C18.3074 51.3477 18.4303 51.3098 18.5246 51.2342C18.6189 51.1585 18.691 51.0431 18.7409 50.888C18.7409 50.8842 18.7455 50.8823 18.7547 50.8823C18.7677 50.8823 18.7742 50.8851 18.7742 50.8908L18.7464 51.203C18.7446 51.2257 18.7418 51.2399 18.7381 51.2455C18.7344 51.2512 18.727 51.2578 18.7159 51.2654C18.6198 51.3127 18.5292 51.3458 18.4442 51.3647C18.361 51.3836 18.2648 51.3931 18.1558 51.3931C17.9616 51.3931 17.7879 51.3543 17.6344 51.2767C17.4828 51.1973 17.3645 51.0866 17.2794 50.9447C17.1944 50.8029 17.1519 50.6402 17.1519 50.4567C17.1519 50.2788 17.1953 50.1218 17.2822 49.9856C17.3691 49.8475 17.4884 49.7406 17.64 49.6649C17.7934 49.5893 17.9653 49.5514 18.1558 49.5514Z" fill="#0E1822"/>
<path d="M18.87 51.3562C18.8663 51.3562 18.8644 51.3505 18.8644 51.3392C18.8644 51.3278 18.8663 51.3221 18.87 51.3221C18.9402 51.3221 18.9911 51.3174 19.0225 51.308C19.0558 51.2985 19.0779 51.2805 19.089 51.254C19.102 51.2257 19.1085 51.1831 19.1085 51.1263V49.8125C19.1085 49.7558 19.102 49.7141 19.089 49.6876C19.0779 49.6612 19.0558 49.6432 19.0225 49.6337C18.9911 49.6224 18.9402 49.6167 18.87 49.6167C18.8663 49.6167 18.8644 49.611 18.8644 49.5997C18.8644 49.5883 18.8663 49.5827 18.87 49.5827H19.9848C20.0014 49.5827 20.0097 49.5912 20.0097 49.6082L20.0153 49.9572C20.0153 49.9629 20.0097 49.9667 19.9986 49.9686C19.9894 49.9686 19.9848 49.9657 19.9848 49.9601C19.9792 49.8598 19.9496 49.7822 19.896 49.7274C19.8424 49.6706 19.7712 49.6422 19.6825 49.6422H19.5133C19.4486 49.6422 19.4006 49.6479 19.3691 49.6593C19.3377 49.6687 19.3155 49.6858 19.3026 49.7104C19.2915 49.7349 19.2859 49.7737 19.2859 49.8267V51.115C19.2859 51.1661 19.2915 51.2049 19.3026 51.2313C19.3155 51.2559 19.3368 51.273 19.3664 51.2824C19.3959 51.2919 19.4422 51.2966 19.505 51.2966H19.7269C19.8156 51.2966 19.8895 51.2644 19.9487 51.2001C20.0079 51.1358 20.0476 51.0469 20.068 50.9334C20.068 50.9296 20.0716 50.9277 20.079 50.9277C20.0846 50.9277 20.0892 50.9296 20.0929 50.9334C20.0985 50.9353 20.1012 50.9372 20.1012 50.9391C20.0846 51.0582 20.0763 51.1831 20.0763 51.3136C20.0763 51.3288 20.0726 51.3401 20.0652 51.3477C20.0596 51.3534 20.0485 51.3562 20.0319 51.3562H18.87ZM19.8766 50.695C19.8766 50.6118 19.8563 50.5522 19.8156 50.5162C19.7768 50.4803 19.7111 50.4623 19.6187 50.4623H19.2027V50.4027H19.627C19.7158 50.4027 19.7786 50.3876 19.8156 50.3573C19.8544 50.3271 19.8738 50.276 19.8738 50.2041C19.8738 50.2003 19.8794 50.1984 19.8905 50.1984C19.9016 50.1984 19.9071 50.2003 19.9071 50.2041L19.9043 50.434C19.9043 50.4888 19.9053 50.5304 19.9071 50.5588L19.9099 50.695C19.9099 50.6988 19.9043 50.7007 19.8932 50.7007C19.8822 50.7007 19.8766 50.6988 19.8766 50.695Z" fill="#0E1822"/>
<path d="M20.8929 49.8125C20.8929 49.7558 20.8874 49.7141 20.8763 49.6876C20.8652 49.6612 20.843 49.6432 20.8097 49.6337C20.7783 49.6224 20.7274 49.6167 20.6572 49.6167C20.6535 49.6167 20.6517 49.611 20.6517 49.5997C20.6517 49.5883 20.6535 49.5827 20.6572 49.5827L20.7959 49.5855C20.8735 49.5893 20.9354 49.5912 20.9817 49.5912C21.0353 49.5912 21.1009 49.5893 21.1785 49.5855L21.3089 49.5827C21.3144 49.5827 21.3172 49.5883 21.3172 49.5997C21.3172 49.611 21.3144 49.6167 21.3089 49.6167C21.2405 49.6167 21.1896 49.6224 21.1564 49.6337C21.1249 49.6451 21.1027 49.6649 21.0898 49.6933C21.0787 49.7198 21.0732 49.7614 21.0732 49.8182V51.1263C21.0732 51.185 21.0787 51.2276 21.0898 51.254C21.1009 51.2805 21.1222 51.2985 21.1536 51.308C21.1869 51.3174 21.2386 51.3221 21.3089 51.3221C21.3144 51.3221 21.3172 51.3278 21.3172 51.3392C21.3172 51.3505 21.3144 51.3562 21.3089 51.3562C21.2534 51.3562 21.209 51.3553 21.1758 51.3534L20.9817 51.3505L20.7931 51.3534C20.7598 51.3553 20.7136 51.3562 20.6544 51.3562C20.6507 51.3562 20.6489 51.3505 20.6489 51.3392C20.6489 51.3278 20.6507 51.3221 20.6544 51.3221C20.7247 51.3221 20.7755 51.3174 20.8069 51.308C20.8402 51.2985 20.8624 51.2805 20.8735 51.254C20.8864 51.2257 20.8929 51.1831 20.8929 51.1263V49.8125ZM21.148 50.3772L21.2867 50.2637L21.6916 50.7915C21.8265 50.9712 21.9291 51.098 21.9994 51.1717C22.0715 51.2455 22.127 51.289 22.1658 51.3023C22.2046 51.3155 22.261 51.3221 22.3349 51.3221C22.3405 51.3221 22.3433 51.3278 22.3433 51.3392C22.3433 51.3505 22.3405 51.3562 22.3349 51.3562H22.0243C22.0096 51.3562 21.9827 51.3562 21.9439 51.3562C21.9069 51.3581 21.8543 51.3108 21.7859 51.2143C21.7175 51.1159 21.6518 51.0261 21.589 50.9447L21.148 50.3772ZM21.6666 49.8125C21.7276 49.7501 21.7581 49.7037 21.7581 49.6735C21.7581 49.6356 21.7036 49.6167 21.5945 49.6167C21.5908 49.6167 21.589 49.611 21.589 49.5997C21.589 49.5883 21.5908 49.5827 21.5945 49.5827L21.7138 49.5855C21.7877 49.5893 21.8552 49.5912 21.9162 49.5912C21.9772 49.5912 22.041 49.5893 22.1075 49.5855L22.2101 49.5827C22.2157 49.5827 22.2185 49.5883 22.2185 49.5997C22.2185 49.611 22.2157 49.6167 22.2101 49.6167C22.1343 49.6167 22.0539 49.6337 21.9689 49.6678C21.8838 49.7018 21.8043 49.7558 21.7304 49.8295L21.0205 50.5418H20.9511L21.6666 49.8125Z" fill="#0E1822"/>
<path d="M22.7603 50.5191H23.4952L23.5146 50.5758H22.7326L22.7603 50.5191ZM24.133 51.3221C24.1404 51.3221 24.1441 51.3278 24.1441 51.3392C24.1441 51.3505 24.1404 51.3562 24.133 51.3562C24.0979 51.3562 24.0433 51.3543 23.9694 51.3505C23.8954 51.3467 23.8418 51.3448 23.8085 51.3448C23.7679 51.3448 23.7161 51.3467 23.6533 51.3505C23.5941 51.3543 23.5488 51.3562 23.5174 51.3562C23.51 51.3562 23.5063 51.3505 23.5063 51.3392C23.5063 51.3278 23.51 51.3221 23.5174 51.3221C23.5876 51.3221 23.6375 51.3155 23.6671 51.3023C23.6985 51.289 23.7143 51.2654 23.7143 51.2313C23.7143 51.203 23.7032 51.1632 23.681 51.1122L23.0653 49.7813L23.1347 49.6933L22.5967 50.9958C22.5708 51.0601 22.5579 51.1131 22.5579 51.1547C22.5579 51.2663 22.6485 51.3221 22.8296 51.3221C22.8389 51.3221 22.8435 51.3278 22.8435 51.3392C22.8435 51.3505 22.8389 51.3562 22.8296 51.3562C22.7964 51.3562 22.7483 51.3543 22.6854 51.3505C22.6152 51.3467 22.5542 51.3448 22.5024 51.3448C22.4543 51.3448 22.3989 51.3467 22.336 51.3505C22.2806 51.3543 22.2343 51.3562 22.1974 51.3562C22.1881 51.3562 22.1835 51.3505 22.1835 51.3392C22.1835 51.3278 22.1881 51.3221 22.1974 51.3221C22.2491 51.3221 22.2926 51.3127 22.3277 51.2938C22.3647 51.273 22.3989 51.238 22.4303 51.1888C22.4636 51.1377 22.4996 51.0649 22.5385 50.9703L23.1236 49.5571C23.1273 49.5514 23.1338 49.5486 23.143 49.5486C23.1522 49.5486 23.1578 49.5514 23.1596 49.5571L23.8141 50.9674C23.8769 51.1074 23.9306 51.202 23.9749 51.2512C24.0193 51.2985 24.072 51.3221 24.133 51.3221Z" fill="#0E1822"/>
<path d="M24.3774 49.9147C24.3774 49.9884 24.395 50.0528 24.4301 50.1076C24.4653 50.1625 24.5078 50.2088 24.5577 50.2467C24.6076 50.2826 24.6779 50.329 24.7685 50.3857C24.8646 50.4444 24.9395 50.4935 24.9931 50.5333C25.0467 50.573 25.092 50.6241 25.129 50.6865C25.1678 50.747 25.1872 50.8199 25.1872 50.905C25.1872 50.9958 25.165 51.0781 25.1206 51.1519C25.0763 51.2257 25.0106 51.2843 24.9238 51.3278C24.8387 51.3694 24.7361 51.3902 24.6159 51.3902C24.4736 51.3902 24.3432 51.3571 24.2249 51.2909C24.2157 51.2853 24.2092 51.2786 24.2055 51.2711C24.2037 51.2635 24.2018 51.2522 24.2 51.237L24.1639 50.8511C24.1621 50.8435 24.1658 50.8388 24.175 50.8369C24.1861 50.835 24.1926 50.8379 24.1944 50.8454C24.2222 50.9797 24.2767 51.097 24.358 51.1973C24.4394 51.2957 24.5466 51.3448 24.6797 51.3448C24.7722 51.3448 24.8498 51.3193 24.9127 51.2682C24.9774 51.2153 25.0097 51.132 25.0097 51.0185C25.0097 50.9334 24.9912 50.8596 24.9543 50.7972C24.9173 50.7347 24.872 50.6837 24.8184 50.6439C24.7666 50.6023 24.6954 50.5541 24.6048 50.4992C24.5161 50.4444 24.4459 50.3971 24.3941 50.3573C24.3442 50.3176 24.3016 50.2675 24.2665 50.2069C24.2314 50.1464 24.2138 50.0755 24.2138 49.9941C24.2138 49.8995 24.2379 49.8191 24.2859 49.7529C24.3358 49.6848 24.3996 49.6347 24.4773 49.6025C24.5568 49.5685 24.6409 49.5514 24.7296 49.5514C24.8387 49.5514 24.9469 49.5741 25.0541 49.6195C25.0818 49.629 25.0957 49.6451 25.0957 49.6678L25.1151 49.9913C25.1151 50.0007 25.1096 50.0055 25.0985 50.0055C25.0892 50.0055 25.0837 50.0017 25.0818 49.9941C25.0689 49.8957 25.0301 49.8049 24.9653 49.7217C24.9006 49.6366 24.8073 49.594 24.6853 49.594C24.5817 49.594 24.5041 49.6252 24.4523 49.6876C24.4024 49.7482 24.3774 49.8239 24.3774 49.9147Z" fill="#0E1822"/>
<path d="M26.7546 49.8182C26.7546 49.7614 26.7481 49.7198 26.7352 49.6933C26.7241 49.6649 26.7019 49.6451 26.6686 49.6337C26.6354 49.6224 26.5827 49.6167 26.5106 49.6167C26.505 49.6167 26.5022 49.611 26.5022 49.5997C26.5022 49.5883 26.505 49.5827 26.5106 49.5827L26.6437 49.5855C26.725 49.5893 26.7925 49.5912 26.8461 49.5912C26.896 49.5912 26.9598 49.5893 27.0375 49.5855L27.1733 49.5827C27.1789 49.5827 27.1817 49.5883 27.1817 49.5997C27.1817 49.611 27.1789 49.6167 27.1733 49.6167C27.1031 49.6167 27.0513 49.6224 27.018 49.6337C26.9848 49.6432 26.9617 49.6612 26.9487 49.6876C26.9376 49.7141 26.9321 49.7558 26.9321 49.8125V51.1263C26.9321 51.1831 26.9376 51.2257 26.9487 51.254C26.9617 51.2805 26.9848 51.2985 27.018 51.308C27.0513 51.3174 27.1031 51.3221 27.1733 51.3221C27.1789 51.3221 27.1817 51.3278 27.1817 51.3392C27.1817 51.3505 27.1789 51.3562 27.1733 51.3562C27.116 51.3562 27.0707 51.3553 27.0375 51.3534L26.8461 51.3505L26.6437 51.3534C26.6104 51.3553 26.566 51.3562 26.5106 51.3562C26.505 51.3562 26.5022 51.3505 26.5022 51.3392C26.5022 51.3278 26.505 51.3221 26.5106 51.3221C26.5827 51.3221 26.6354 51.3174 26.6686 51.308C26.7019 51.2985 26.7241 51.2805 26.7352 51.254C26.7481 51.2257 26.7546 51.1831 26.7546 51.1263V49.8182ZM25.5927 50.4027H26.8322V50.4623H25.5927V50.4027ZM25.5122 49.8125C25.5122 49.7558 25.5058 49.7141 25.4928 49.6876C25.4817 49.6612 25.4595 49.6432 25.4263 49.6337C25.393 49.6224 25.3412 49.6167 25.271 49.6167C25.2673 49.6167 25.2654 49.611 25.2654 49.5997C25.2654 49.5883 25.2673 49.5827 25.271 49.5827L25.4124 49.5855C25.4901 49.5893 25.552 49.5912 25.5982 49.5912C25.6518 49.5912 25.7193 49.5893 25.8006 49.5855L25.9338 49.5827C25.9374 49.5827 25.9393 49.5883 25.9393 49.5997C25.9393 49.611 25.9374 49.6167 25.9338 49.6167C25.8635 49.6167 25.8108 49.6224 25.7757 49.6337C25.7424 49.6451 25.7193 49.6649 25.7064 49.6933C25.6953 49.7198 25.6897 49.7614 25.6897 49.8182V51.1263C25.6897 51.1831 25.6953 51.2257 25.7064 51.254C25.7193 51.2805 25.7424 51.2985 25.7757 51.308C25.809 51.3174 25.8617 51.3221 25.9338 51.3221C25.9374 51.3221 25.9393 51.3278 25.9393 51.3392C25.9393 51.3505 25.9374 51.3562 25.9338 51.3562C25.8764 51.3562 25.8311 51.3553 25.7979 51.3534L25.5982 51.3505L25.4069 51.3534C25.3736 51.3553 25.3274 51.3562 25.2682 51.3562C25.2645 51.3562 25.2627 51.3505 25.2627 51.3392C25.2627 51.3278 25.2645 51.3221 25.2682 51.3221C25.3385 51.3221 25.3902 51.3174 25.4235 51.308C25.4586 51.2985 25.4817 51.2805 25.4928 51.254C25.5058 51.2257 25.5122 51.1831 25.5122 51.1263V49.8125Z" fill="#0E1822"/>
<path d="M27.4667 49.6479L27.5333 49.6536L27.5055 51.0469C27.5037 51.1472 27.5203 51.2181 27.5554 51.2597C27.5906 51.3013 27.6525 51.3221 27.7412 51.3221C27.7449 51.3221 27.7468 51.3278 27.7468 51.3392C27.7468 51.3505 27.7449 51.3562 27.7412 51.3562C27.6895 51.3562 27.6497 51.3553 27.622 51.3534L27.4722 51.3505L27.328 51.3534C27.3022 51.3553 27.2652 51.3562 27.2171 51.3562C27.2134 51.3562 27.2116 51.3505 27.2116 51.3392C27.2116 51.3278 27.2134 51.3221 27.2171 51.3221C27.2948 51.3221 27.3502 51.3013 27.3835 51.2597C27.4186 51.2162 27.4371 51.1453 27.439 51.0469L27.4667 49.6479ZM29.3607 51.3221C29.3663 51.3221 29.3691 51.3278 29.3691 51.3392C29.3691 51.3505 29.3663 51.3562 29.3607 51.3562C29.3034 51.3562 29.2581 51.3553 29.2249 51.3534L29.0335 51.3505L28.856 51.3534C28.8265 51.3553 28.7849 51.3562 28.7312 51.3562C28.7275 51.3562 28.7257 51.3505 28.7257 51.3392C28.7257 51.3278 28.7275 51.3221 28.7312 51.3221C28.7941 51.3221 28.8403 51.3174 28.8699 51.308C28.9013 51.2966 28.9217 51.2777 28.9309 51.2512C28.942 51.2247 28.9457 51.1831 28.942 51.1263L28.8893 49.7558L28.9808 49.6252L28.2598 51.3363C28.2561 51.3439 28.2487 51.3477 28.2376 51.3477C28.2284 51.3477 28.2201 51.3439 28.2127 51.3363L27.5166 49.8182C27.4852 49.7482 27.4464 49.6971 27.4001 49.6649C27.3558 49.6328 27.3012 49.6167 27.2365 49.6167C27.2328 49.6167 27.231 49.611 27.231 49.5997C27.231 49.5883 27.2328 49.5827 27.2365 49.5827L27.3391 49.5855C27.3576 49.5874 27.3835 49.5883 27.4168 49.5883C27.4501 49.5883 27.4778 49.5874 27.5 49.5855C27.524 49.5836 27.5425 49.5827 27.5554 49.5827C27.5795 49.5827 27.5989 49.5921 27.6137 49.611C27.6303 49.6281 27.6534 49.6678 27.683 49.7302L28.3153 51.0923L28.2293 51.2399L28.906 49.6536C28.9263 49.6063 28.954 49.5827 28.9891 49.5827C28.9984 49.5827 29.0113 49.5836 29.028 49.5855C29.0465 49.5874 29.0705 49.5883 29.1001 49.5883L29.2304 49.5855C29.2507 49.5836 29.2812 49.5827 29.3219 49.5827C29.3256 49.5827 29.3275 49.5883 29.3275 49.5997C29.3275 49.611 29.3256 49.6167 29.3219 49.6167C29.2276 49.6167 29.1602 49.6309 29.1195 49.6593C29.0807 49.6858 29.0631 49.7368 29.0668 49.8125L29.1223 51.1263C29.1241 51.185 29.1306 51.2276 29.1417 51.254C29.1546 51.2805 29.1768 51.2985 29.2082 51.308C29.2397 51.3174 29.2905 51.3221 29.3607 51.3221Z" fill="#0E1822"/>
<path d="M29.8099 51.1263C29.8099 51.185 29.8154 51.2276 29.8265 51.254C29.8376 51.2805 29.8589 51.2985 29.8903 51.308C29.9236 51.3174 29.9753 51.3221 30.0456 51.3221C30.0511 51.3221 30.0539 51.3278 30.0539 51.3392C30.0539 51.3505 30.0511 51.3562 30.0456 51.3562C29.9901 51.3562 29.9458 51.3553 29.9125 51.3534L29.7156 51.3505L29.5243 51.3534C29.491 51.3553 29.4457 51.3562 29.3884 51.3562C29.3828 51.3562 29.38 51.3505 29.38 51.3392C29.38 51.3278 29.3828 51.3221 29.3884 51.3221C29.4586 51.3221 29.5095 51.3174 29.5409 51.308C29.5742 51.2985 29.5964 51.2805 29.6074 51.254C29.6204 51.2257 29.6269 51.1831 29.6269 51.1263V49.8125C29.6269 49.7558 29.6204 49.7141 29.6074 49.6876C29.5964 49.6612 29.5742 49.6432 29.5409 49.6337C29.5095 49.6224 29.4586 49.6167 29.3884 49.6167C29.3828 49.6167 29.38 49.611 29.38 49.5997C29.38 49.5883 29.3828 49.5827 29.3884 49.5827L29.5243 49.5855C29.6019 49.5893 29.6657 49.5912 29.7156 49.5912C29.7711 49.5912 29.8376 49.5893 29.9153 49.5855L30.0456 49.5827C30.0511 49.5827 30.0539 49.5883 30.0539 49.5997C30.0539 49.611 30.0511 49.6167 30.0456 49.6167C29.9772 49.6167 29.9264 49.6224 29.8931 49.6337C29.8598 49.6451 29.8376 49.6649 29.8265 49.6933C29.8154 49.7198 29.8099 49.7614 29.8099 49.8182V51.1263Z" fill="#0E1822"/>
<path d="M31.5487 51.3562C31.5025 51.3562 31.4138 51.2758 31.2825 51.115C31.1531 50.9523 30.9969 50.7291 30.8138 50.4453L30.9691 50.3971C31.13 50.6335 31.264 50.818 31.3712 50.9504C31.4803 51.0809 31.5764 51.1755 31.6596 51.2342C31.7428 51.2928 31.8242 51.3221 31.9037 51.3221C31.9092 51.3221 31.912 51.3278 31.912 51.3392C31.912 51.3505 31.9092 51.3562 31.9037 51.3562H31.5487ZM30.8499 49.5741C30.9959 49.5741 31.1087 49.6082 31.1882 49.6763C31.2677 49.7444 31.3075 49.8352 31.3075 49.9487C31.3075 50.049 31.2788 50.1407 31.2215 50.224C31.1642 50.3053 31.0865 50.3706 30.9885 50.4198C30.8924 50.4671 30.7889 50.4907 30.678 50.4907C30.6669 50.4907 30.6253 50.4879 30.5532 50.4822V51.1263C30.5532 51.185 30.5587 51.2276 30.5698 51.254C30.5809 51.2805 30.6022 51.2985 30.6336 51.308C30.6669 51.3174 30.7186 51.3221 30.7889 51.3221C30.7944 51.3221 30.7972 51.3278 30.7972 51.3392C30.7972 51.3505 30.7944 51.3562 30.7889 51.3562C30.7316 51.3562 30.6863 51.3553 30.653 51.3534L30.4617 51.3505L30.2731 51.3534C30.2398 51.3553 30.1927 51.3562 30.1317 51.3562C30.128 51.3562 30.1261 51.3505 30.1261 51.3392C30.1261 51.3278 30.128 51.3221 30.1317 51.3221C30.2019 51.3221 30.2537 51.3174 30.2869 51.308C30.3202 51.2966 30.3433 51.2777 30.3563 51.2512C30.3692 51.2247 30.3757 51.1831 30.3757 51.1263V49.8125C30.3757 49.7558 30.3692 49.7141 30.3563 49.6876C30.3452 49.6612 30.323 49.6432 30.2897 49.6337C30.2583 49.6224 30.2074 49.6167 30.1372 49.6167C30.1317 49.6167 30.1289 49.611 30.1289 49.5997C30.1289 49.5883 30.1317 49.5827 30.1372 49.5827L30.2731 49.5855C30.3507 49.5893 30.4136 49.5912 30.4617 49.5912C30.5023 49.5912 30.5402 49.5902 30.5753 49.5883C30.6105 49.5864 30.6401 49.5845 30.6641 49.5827C30.7343 49.577 30.7963 49.5741 30.8499 49.5741ZM31.1189 50.031C31.1189 49.8834 31.0865 49.7775 31.0218 49.7132C30.959 49.6489 30.8665 49.6167 30.7445 49.6167C30.6724 49.6167 30.6225 49.63 30.5948 49.6564C30.567 49.6829 30.5532 49.7368 30.5532 49.8182V50.4141C30.5975 50.4217 30.6521 50.4254 30.7168 50.4254C30.861 50.4254 30.9636 50.3933 31.0246 50.329C31.0875 50.2646 31.1189 50.1653 31.1189 50.031Z" fill="#0E1822"/>
</svg>
